<svg xmlns="http://www.w3.org/2000/svg" xmlns:xlink="http://www.w3.org/1999/xlink" width="2000" zoomAndPan="magnify" viewBox="0 0 1500 1499.999933" height="2000" preserveAspectRatio="xMidYMid meet" version="1.0"><defs><filter x="0%" y="0%" width="100%" height="100%" id="4d8e768308"><feColorMatrix values="0 0 0 0 1 0 0 0 0 1 0 0 0 0 1 0 0 0 1 0" color-interpolation-filters="sRGB"/></filter><mask id="33671ac8c1"><g filter="url(#4d8e768308)"><rect x="-150" width="1800" fill="#000000" y="-149.999993" height="1799.99992" fill-opacity="0.25"/></g></mask><clipPath id="0b55ba671a"><path d="M 1 1.144531 L 805 1.144531 L 805 1292.644531 L 1 1292.644531 Z M 1 1.144531 " clip-rule="nonzero"/></clipPath><clipPath id="bfbd25e96b"><rect x="0" width="806" y="0" height="1295"/></clipPath></defs><g mask="url(#33671ac8c1)"><g transform="matrix(1, 0, 0, 1, 347, 103)"><g clip-path="url(#bfbd25e96b)"><g clip-path="url(#0b55ba671a)"><path fill="#ff6b4a" d="M 803.050781 756.5625 C 796.777344 746.113281 785.660156 723.515625 772.234375 678.417969 C 763.246094 648.265625 767.1875 542.316406 769.722656 491.652344 C 673.164062 475.613281 633.136719 430.257812 633.136719 430.257812 C 681.832031 458.273438 750.714844 477.035156 750.714844 477.035156 C 723.195312 305.511719 535.667969 233.328125 456.03125 229.136719 C 442.023438 248.476562 440.273438 281.359375 440.273438 281.359375 C 431.011719 191.605469 530.621094 62.164062 530.621094 62.164062 C 478.382812 1.320312 402.996094 1.984375 402.996094 1.984375 C 402.996094 1.984375 327.617188 1.320312 275.371094 62.164062 C 275.371094 62.164062 374.980469 191.605469 365.722656 281.359375 C 365.722656 281.359375 363.972656 248.476562 349.960938 229.136719 C 270.332031 233.328125 82.792969 305.511719 55.277344 477.035156 C 55.277344 477.035156 124.152344 458.273438 172.847656 430.257812 C 172.847656 430.257812 132.824219 475.613281 36.273438 491.652344 C 38.808594 542.316406 42.742188 648.265625 33.765625 678.417969 C 20.332031 723.515625 9.21875 746.113281 2.941406 756.5625 C 0.148438 761.210938 1.027344 767.175781 5.058594 770.832031 C 24.023438 787.980469 74.359375 842.136719 111.789062 960.523438 C 111.289062 958.925781 83.289062 908.628906 51.773438 872.203125 C 54.011719 879.28125 55.894531 886.582031 57.304688 894.128906 C 63.78125 928.730469 75.976562 991.28125 76.808594 1051.144531 C 77.214844 1080.496094 89.035156 1108.523438 109.667969 1129.398438 L 270.914062 1292.566406 L 286.921875 824.503906 L 232.25 776.5 L 226.238281 855.621094 L 209.777344 756.769531 L 137.21875 693.0625 C 127.976562 684.941406 122.226562 673.578125 121.160156 661.324219 L 114.816406 588.351562 L 314.148438 701.8125 C 333.832031 713.007812 346.757812 733.167969 348.730469 755.722656 L 357.445312 855.152344 C 358.429688 866.429688 355.679688 877.707031 349.605469 887.261719 L 336.054688 908.5625 L 402.996094 1009.964844 L 469.933594 908.5625 L 456.394531 887.261719 C 450.3125 877.707031 447.554688 866.429688 448.546875 855.152344 L 457.261719 755.722656 C 459.230469 733.167969 472.167969 713.007812 491.839844 701.8125 L 691.183594 588.351562 L 684.839844 661.324219 C 683.761719 673.578125 678.015625 684.941406 668.78125 693.0625 L 519.070312 824.503906 L 535.074219 1292.566406 L 696.324219 1129.398438 C 716.964844 1108.523438 728.777344 1080.496094 729.195312 1051.144531 C 730.015625 991.28125 742.203125 928.730469 748.683594 894.128906 C 750.105469 886.582031 751.980469 879.28125 754.214844 872.203125 C 722.699219 908.628906 694.710938 958.925781 694.199219 960.523438 C 731.632812 842.136719 781.964844 787.980469 800.9375 770.832031 C 804.960938 767.175781 805.84375 761.210938 803.050781 756.5625 " fill-opacity="1" fill-rule="nonzero"/></g></g></g></g></svg>