<svg xmlns="http://www.w3.org/2000/svg" xmlns:xlink="http://www.w3.org/1999/xlink" width="2000" zoomAndPan="magnify" viewBox="0 0 1500 1499.999933" height="2000" preserveAspectRatio="xMidYMid meet" version="1.0"><defs><clipPath id="4b6cdef61b"><path d="M 348 104.144531 L 1152 104.144531 L 1152 1395.644531 L 348 1395.644531 Z M 348 104.144531 " clip-rule="nonzero"/></clipPath></defs><g clip-path="url(#4b6cdef61b)"><path fill="#968f92" d="M 1150.050781 859.5625 C 1143.777344 849.113281 1132.660156 826.515625 1119.234375 781.417969 C 1110.246094 751.265625 1114.1875 645.316406 1116.722656 594.652344 C 1020.164062 578.613281 980.136719 533.257812 980.136719 533.257812 C 1028.832031 561.273438 1097.714844 580.035156 1097.714844 580.035156 C 1070.195312 408.511719 882.667969 336.328125 803.03125 332.136719 C 789.023438 351.476562 787.273438 384.359375 787.273438 384.359375 C 778.011719 294.605469 877.621094 165.164062 877.621094 165.164062 C 825.382812 104.320312 749.996094 104.984375 749.996094 104.984375 C 749.996094 104.984375 674.617188 104.320312 622.371094 165.164062 C 622.371094 165.164062 721.980469 294.605469 712.722656 384.359375 C 712.722656 384.359375 710.972656 351.476562 696.960938 332.136719 C 617.332031 336.328125 429.792969 408.511719 402.277344 580.035156 C 402.277344 580.035156 471.152344 561.273438 519.847656 533.257812 C 519.847656 533.257812 479.824219 578.613281 383.273438 594.652344 C 385.808594 645.316406 389.742188 751.265625 380.765625 781.417969 C 367.332031 826.515625 356.21875 849.113281 349.941406 859.5625 C 347.148438 864.210938 348.027344 870.175781 352.058594 873.832031 C 371.023438 890.980469 421.359375 945.136719 458.789062 1063.523438 C 458.289062 1061.925781 430.289062 1011.628906 398.773438 975.203125 C 401.011719 982.28125 402.894531 989.582031 404.304688 997.128906 C 410.78125 1031.730469 422.976562 1094.28125 423.808594 1154.144531 C 424.214844 1183.496094 436.035156 1211.523438 456.667969 1232.398438 L 617.914062 1395.566406 L 633.921875 927.503906 L 579.25 879.5 L 573.238281 958.621094 L 556.777344 859.769531 L 484.21875 796.0625 C 474.976562 787.941406 469.226562 776.578125 468.160156 764.324219 L 461.816406 691.351562 L 661.148438 804.8125 C 680.832031 816.007812 693.757812 836.167969 695.730469 858.722656 L 704.445312 958.152344 C 705.429688 969.429688 702.679688 980.707031 696.605469 990.261719 L 683.054688 1011.5625 L 749.996094 1112.964844 L 816.933594 1011.5625 L 803.394531 990.261719 C 797.3125 980.707031 794.554688 969.429688 795.546875 958.152344 L 804.261719 858.722656 C 806.230469 836.167969 819.167969 816.007812 838.839844 804.8125 L 1038.183594 691.351562 L 1031.839844 764.324219 C 1030.761719 776.578125 1025.015625 787.941406 1015.78125 796.0625 L 866.070312 927.503906 L 882.074219 1395.566406 L 1043.324219 1232.398438 C 1063.964844 1211.523438 1075.777344 1183.496094 1076.195312 1154.144531 C 1077.015625 1094.28125 1089.203125 1031.730469 1095.683594 997.128906 C 1097.105469 989.582031 1098.980469 982.28125 1101.214844 975.203125 C 1069.699219 1011.628906 1041.710938 1061.925781 1041.199219 1063.523438 C 1078.632812 945.136719 1128.964844 890.980469 1147.9375 873.832031 C 1151.960938 870.175781 1152.84375 864.210938 1150.050781 859.5625 " fill-opacity="1" fill-rule="nonzero"/></g></svg>