<svg xmlns="http://www.w3.org/2000/svg" xmlns:xlink="http://www.w3.org/1999/xlink" width="1975" zoomAndPan="magnify" viewBox="0 0 1481.25 450.749984" height="601" preserveAspectRatio="xMidYMid meet" version="1.0"><defs><g/><clipPath id="454754a5b6"><path d="M 628.15625 113.613281 L 850.785156 113.613281 L 850.785156 336.238281 L 628.15625 336.238281 Z M 628.15625 113.613281 " clip-rule="nonzero"/></clipPath><clipPath id="5b93325691"><path d="M 739.582031 113.613281 C 678.042969 113.613281 628.15625 163.5 628.15625 225.035156 C 628.15625 286.574219 678.042969 336.460938 739.582031 336.460938 C 801.121094 336.460938 851.007812 286.574219 851.007812 225.035156 C 851.007812 163.5 801.121094 113.613281 739.582031 113.613281 Z M 739.582031 113.613281 " clip-rule="nonzero"/></clipPath><clipPath id="97d3598e1c"><path d="M 588.523438 73.976562 L 890.605469 73.976562 L 890.605469 376.058594 L 588.523438 376.058594 Z M 588.523438 73.976562 " clip-rule="nonzero"/></clipPath></defs><g fill="#f2f2f2" fill-opacity="1"><g transform="translate(102.892457, 335.225041)"><g><path d="M 20.449219 -222.984375 L 124.359375 -222.984375 C 127.273438 -222.984375 129.261719 -222.136719 130.324219 -220.433594 C 131.347656 -218.796875 131.332031 -216.582031 130.285156 -213.785156 L 61.464844 -35.792969 L 59.691406 -36.480469 L 59.691406 -38.378906 L 120.492188 -38.378906 C 122.488281 -38.378906 124.042969 -37.824219 125.152344 -36.71875 C 126.257812 -35.609375 126.8125 -34.054688 126.8125 -32.058594 L 126.8125 -4.699219 C 126.8125 -2.8125 126.273438 -1.296875 125.191406 -0.148438 C 124.140625 0.964844 122.652344 1.644531 120.726562 1.886719 L 120.609375 1.898438 L 12.988281 1.898438 C 9.996094 1.898438 8 0.90625 7.003906 -1.085938 C 6.105469 -2.882812 6.132812 -4.96875 7.078125 -7.339844 L 75.882812 -185.015625 L 77.65625 -184.328125 L 77.65625 -182.429688 L 20.449219 -182.429688 C 18.453125 -182.429688 16.898438 -182.984375 15.789062 -184.09375 C 14.683594 -185.199219 14.128906 -186.753906 14.128906 -188.75 L 14.128906 -216.386719 C 14.128906 -218.269531 14.667969 -219.789062 15.75 -220.9375 C 16.800781 -222.050781 18.289062 -222.730469 20.214844 -222.96875 L 20.332031 -222.984375 Z M 20.449219 -219.183594 L 20.449219 -221.085938 L 20.6875 -219.199219 C 19.664062 -219.074219 18.941406 -218.78125 18.519531 -218.332031 C 18.125 -217.914062 17.929688 -217.265625 17.929688 -216.386719 L 17.929688 -188.75 C 17.929688 -187.800781 18.113281 -187.144531 18.476562 -186.777344 C 18.84375 -186.414062 19.5 -186.230469 20.449219 -186.230469 L 80.429688 -186.230469 L 10.609375 -5.925781 C 10.082031 -4.613281 10.015625 -3.566406 10.40625 -2.785156 C 10.699219 -2.195312 11.5625 -1.898438 12.988281 -1.898438 L 120.492188 -1.898438 L 120.492188 0 L 120.257812 -1.886719 C 121.277344 -2.011719 122 -2.300781 122.425781 -2.753906 C 122.816406 -3.171875 123.011719 -3.820312 123.011719 -4.699219 L 123.011719 -32.058594 C 123.011719 -33.007812 122.832031 -33.664062 122.464844 -34.03125 C 122.097656 -34.394531 121.441406 -34.578125 120.492188 -34.578125 L 56.921875 -34.578125 L 126.726562 -215.121094 C 127.335938 -216.746094 127.460938 -217.84375 127.101562 -218.421875 C 126.78125 -218.929688 125.871094 -219.183594 124.359375 -219.183594 Z M 20.449219 -219.183594 "/></g></g></g><g fill="#f2f2f2" fill-opacity="1"><g transform="translate(267.877671, 335.225041)"><g><path d="M 125.984375 -216.664062 L 125.984375 -189.027344 C 125.984375 -186.960938 125.445312 -185.351562 124.363281 -184.203125 C 123.25 -183.019531 121.683594 -182.429688 119.664062 -182.429688 L 50.574219 -182.429688 L 50.574219 -184.328125 L 52.472656 -184.328125 L 52.472656 -129.058594 L 50.574219 -129.058594 L 50.574219 -130.957031 L 103.355469 -130.957031 C 105.378906 -130.957031 106.945312 -130.367188 108.058594 -129.1875 C 109.136719 -128.039062 109.679688 -126.429688 109.679688 -124.359375 L 109.679688 -97 C 109.679688 -94.933594 109.136719 -93.324219 108.058594 -92.175781 C 106.945312 -90.992188 105.378906 -90.402344 103.355469 -90.402344 L 50.574219 -90.402344 L 50.574219 -92.304688 L 52.472656 -92.304688 L 52.472656 -36.480469 L 50.574219 -36.480469 L 50.574219 -38.378906 L 119.664062 -38.378906 C 121.660156 -38.378906 123.214844 -37.824219 124.320312 -36.71875 C 125.429688 -35.609375 125.984375 -34.054688 125.984375 -32.058594 L 125.984375 -4.421875 C 125.984375 -2.421875 125.429688 -0.871094 124.320312 0.238281 C 123.214844 1.347656 121.660156 1.898438 119.664062 1.898438 L 17.964844 1.898438 C 16.03125 1.898438 14.535156 1.332031 13.46875 0.195312 C 12.433594 -0.910156 11.917969 -2.445312 11.917969 -4.421875 L 11.917969 -216.664062 C 11.917969 -218.636719 12.433594 -220.175781 13.46875 -221.28125 C 14.535156 -222.417969 16.03125 -222.984375 17.964844 -222.984375 L 119.664062 -222.984375 C 121.660156 -222.984375 123.214844 -222.429688 124.320312 -221.324219 C 125.429688 -220.214844 125.984375 -218.664062 125.984375 -216.664062 Z M 122.183594 -216.664062 C 122.183594 -217.613281 122 -218.269531 121.636719 -218.636719 C 121.269531 -219.003906 120.613281 -219.183594 119.664062 -219.183594 L 17.964844 -219.183594 C 17.128906 -219.183594 16.554688 -219.015625 16.242188 -218.679688 C 15.890625 -218.308594 15.71875 -217.636719 15.71875 -216.664062 L 15.71875 -4.421875 C 15.71875 -3.449219 15.890625 -2.777344 16.242188 -2.40625 C 16.554688 -2.066406 17.128906 -1.898438 17.964844 -1.898438 L 119.664062 -1.898438 C 120.613281 -1.898438 121.269531 -2.082031 121.636719 -2.449219 C 122 -2.816406 122.183594 -3.472656 122.183594 -4.421875 L 122.183594 -32.058594 C 122.183594 -33.007812 122 -33.664062 121.636719 -34.03125 C 121.269531 -34.394531 120.613281 -34.578125 119.664062 -34.578125 L 48.671875 -34.578125 L 48.671875 -94.203125 L 103.355469 -94.203125 C 104.285156 -94.203125 104.929688 -94.394531 105.289062 -94.78125 C 105.683594 -95.195312 105.878906 -95.9375 105.878906 -97 L 105.878906 -124.359375 C 105.878906 -125.425781 105.683594 -126.164062 105.289062 -126.582031 C 104.929688 -126.964844 104.285156 -127.160156 103.355469 -127.160156 L 48.671875 -127.160156 L 48.671875 -186.230469 L 119.664062 -186.230469 C 120.589844 -186.230469 121.234375 -186.421875 121.59375 -186.804688 C 121.988281 -187.222656 122.183594 -187.964844 122.183594 -189.027344 Z M 122.183594 -216.664062 "/></g></g></g><g fill="#f2f2f2" fill-opacity="1"><g transform="translate(430.651993, 335.225041)"><g><path d="M 129.300781 -181.289062 L 129.300781 -113.859375 C 129.300781 -94.605469 122.195312 -81.867188 107.988281 -75.640625 L 107.226562 -77.378906 L 109.0625 -77.863281 L 128.132812 -5.457031 C 128.757812 -3.203125 128.554688 -1.410156 127.519531 -0.078125 C 126.492188 1.242188 124.796875 1.898438 122.425781 1.898438 L 93.683594 1.898438 C 90.082031 1.898438 87.894531 0.109375 87.128906 -3.472656 L 88.988281 -3.867188 L 87.148438 -3.382812 L 68.632812 -73.578125 L 70.472656 -74.0625 L 70.472656 -72.164062 L 51.402344 -72.164062 L 51.402344 -74.0625 L 53.300781 -74.0625 L 53.300781 -4.421875 C 53.300781 -2.421875 52.75 -0.871094 51.640625 0.238281 C 50.53125 1.347656 48.980469 1.898438 46.980469 1.898438 L 18.238281 1.898438 C 16.242188 1.898438 14.6875 1.347656 13.578125 0.238281 C 12.472656 -0.871094 11.917969 -2.421875 11.917969 -4.421875 L 11.917969 -216.664062 C 11.917969 -218.664062 12.472656 -220.214844 13.578125 -221.324219 C 14.6875 -222.429688 16.242188 -222.984375 18.238281 -222.984375 L 87.605469 -222.984375 C 101.210938 -222.984375 111.5625 -219.4375 118.65625 -212.34375 C 125.753906 -205.246094 129.300781 -194.894531 129.300781 -181.289062 Z M 125.5 -181.289062 C 125.5 -193.847656 122.324219 -203.300781 115.96875 -209.65625 C 109.617188 -216.007812 100.160156 -219.183594 87.605469 -219.183594 L 18.238281 -219.183594 C 17.289062 -219.183594 16.632812 -219.003906 16.265625 -218.636719 C 15.902344 -218.269531 15.71875 -217.613281 15.71875 -216.664062 L 15.71875 -4.421875 C 15.71875 -3.472656 15.902344 -2.816406 16.265625 -2.449219 C 16.632812 -2.082031 17.289062 -1.898438 18.238281 -1.898438 L 46.980469 -1.898438 C 47.929688 -1.898438 48.585938 -2.082031 48.953125 -2.449219 C 49.320312 -2.816406 49.503906 -3.472656 49.503906 -4.421875 L 49.503906 -75.964844 L 71.933594 -75.964844 L 90.835938 -4.3125 L 90.84375 -4.265625 C 91.183594 -2.6875 92.128906 -1.898438 93.683594 -1.898438 L 122.425781 -1.898438 C 123.558594 -1.898438 124.253906 -2.070312 124.519531 -2.410156 C 124.773438 -2.734375 124.753906 -3.429688 124.457031 -4.492188 L 104.976562 -78.46875 L 106.464844 -79.121094 C 119.15625 -84.683594 125.5 -96.261719 125.5 -113.859375 Z M 51.402344 -112.441406 L 78.761719 -112.441406 C 81.921875 -112.441406 84.238281 -113.179688 85.707031 -114.648438 C 87.179688 -116.121094 87.914062 -118.4375 87.914062 -121.597656 L 87.914062 -173.550781 C 87.914062 -176.710938 87.179688 -179.027344 85.707031 -180.5 C 84.238281 -181.96875 81.921875 -182.707031 78.761719 -182.707031 L 51.402344 -182.707031 L 51.402344 -184.605469 L 53.300781 -184.605469 L 53.300781 -110.542969 L 51.402344 -110.542969 Z M 49.503906 -108.644531 L 49.503906 -186.507812 L 78.761719 -186.507812 C 82.972656 -186.507812 86.183594 -185.398438 88.394531 -183.1875 C 90.609375 -180.972656 91.714844 -177.761719 91.714844 -173.550781 L 91.714844 -121.597656 C 91.714844 -117.386719 90.609375 -114.175781 88.394531 -111.960938 C 86.183594 -109.75 82.972656 -108.644531 78.761719 -108.644531 Z M 49.503906 -108.644531 "/></g></g></g><g fill="#423d3f" fill-opacity="1"><g transform="translate(102.892457, 335.225041)"><g><path d="M 20.453125 -221.09375 L 124.359375 -221.09375 C 128.785156 -221.09375 130.164062 -218.878906 128.5 -214.453125 L 59.6875 -36.484375 L 120.5 -36.484375 C 123.445312 -36.484375 124.921875 -35.007812 124.921875 -32.0625 L 124.921875 -4.703125 C 124.921875 -1.929688 123.445312 -0.363281 120.5 0 L 12.984375 0 C 10.773438 0 9.347656 -0.644531 8.703125 -1.9375 C 8.054688 -3.226562 8.101562 -4.789062 8.84375 -6.625 L 77.65625 -184.328125 L 20.453125 -184.328125 C 17.503906 -184.328125 16.03125 -185.800781 16.03125 -188.75 L 16.03125 -216.390625 C 16.03125 -219.148438 17.503906 -220.71875 20.453125 -221.09375 Z M 20.453125 -221.09375 "/></g></g></g><g fill="#423d3f" fill-opacity="1"><g transform="translate(267.877671, 335.225041)"><g><path d="M 124.078125 -216.671875 L 124.078125 -189.03125 C 124.078125 -185.894531 122.601562 -184.328125 119.65625 -184.328125 L 50.578125 -184.328125 L 50.578125 -129.0625 L 103.359375 -129.0625 C 106.304688 -129.0625 107.78125 -127.492188 107.78125 -124.359375 L 107.78125 -97 C 107.78125 -93.863281 106.304688 -92.296875 103.359375 -92.296875 L 50.578125 -92.296875 L 50.578125 -36.484375 L 119.65625 -36.484375 C 122.601562 -36.484375 124.078125 -35.007812 124.078125 -32.0625 L 124.078125 -4.421875 C 124.078125 -1.472656 122.601562 0 119.65625 0 L 17.96875 0 C 15.195312 0 13.8125 -1.472656 13.8125 -4.421875 L 13.8125 -216.671875 C 13.8125 -219.617188 15.195312 -221.09375 17.96875 -221.09375 L 119.65625 -221.09375 C 122.601562 -221.09375 124.078125 -219.617188 124.078125 -216.671875 Z M 124.078125 -216.671875 "/></g></g></g><g fill="#423d3f" fill-opacity="1"><g transform="translate(430.651993, 335.225041)"><g><path d="M 127.40625 -181.296875 L 127.40625 -113.859375 C 127.40625 -95.429688 120.679688 -83.269531 107.234375 -77.375 L 126.296875 -4.96875 C 127.210938 -1.65625 125.921875 0 122.421875 0 L 93.6875 0 C 91.101562 0 89.535156 -1.289062 88.984375 -3.875 L 70.46875 -74.0625 L 51.40625 -74.0625 L 51.40625 -4.421875 C 51.40625 -1.472656 49.929688 0 46.984375 0 L 18.234375 0 C 15.285156 0 13.8125 -1.472656 13.8125 -4.421875 L 13.8125 -216.671875 C 13.8125 -219.617188 15.285156 -221.09375 18.234375 -221.09375 L 87.609375 -221.09375 C 100.691406 -221.09375 110.59375 -217.726562 117.3125 -211 C 124.039062 -204.269531 127.40625 -194.367188 127.40625 -181.296875 Z M 51.40625 -110.546875 L 78.765625 -110.546875 C 86.128906 -110.546875 89.8125 -114.226562 89.8125 -121.59375 L 89.8125 -173.546875 C 89.8125 -180.921875 86.128906 -184.609375 78.765625 -184.609375 L 51.40625 -184.609375 Z M 51.40625 -110.546875 "/></g></g></g><g clip-path="url(#454754a5b6)"><g clip-path="url(#5b93325691)"><path stroke-linecap="butt" transform="matrix(0.749584, 0, 0, 0.749584, 628.157764, 113.611623)" fill="none" stroke-linejoin="miter" d="M 148.648101 0.00221275 C 66.550502 0.00221275 -0.00201941 66.554735 -0.00201941 148.647122 C -0.00201941 230.74472 66.550502 297.297242 148.648101 297.297242 C 230.745699 297.297242 297.298221 230.74472 297.298221 148.647122 C 297.298221 66.554735 230.745699 0.00221275 148.648101 0.00221275 Z M 148.648101 0.00221275 " stroke="#423d3f" stroke-width="100" stroke-opacity="1" stroke-miterlimit="4"/></g></g><g fill="#f2f2f2" fill-opacity="1"><g transform="translate(909.752489, 335.225041)"><g><path d="M 11.917969 -39.796875 L 11.917969 -181.289062 C 11.917969 -194.902344 15.515625 -205.253906 22.707031 -212.351562 C 29.894531 -219.441406 40.195312 -222.984375 53.613281 -222.984375 L 90.09375 -222.984375 C 103.507812 -222.984375 113.808594 -219.441406 120.996094 -212.351562 C 128.191406 -205.253906 131.789062 -194.902344 131.789062 -181.289062 L 131.789062 -152.550781 C 131.789062 -150.550781 131.234375 -148.996094 130.125 -147.890625 C 129.019531 -146.78125 127.464844 -146.226562 125.464844 -146.226562 L 97.832031 -146.226562 C 95.832031 -146.226562 94.277344 -146.78125 93.171875 -147.890625 C 92.0625 -148.996094 91.507812 -150.550781 91.507812 -152.550781 L 91.507812 -173.550781 C 91.507812 -176.710938 90.773438 -179.027344 89.300781 -180.5 C 87.832031 -181.96875 85.515625 -182.707031 82.355469 -182.707031 L 62.457031 -182.707031 C 59.296875 -182.707031 56.980469 -181.96875 55.507812 -180.5 C 54.039062 -179.027344 53.300781 -176.710938 53.300781 -173.550781 L 53.300781 -47.535156 C 53.300781 -44.375 54.039062 -42.058594 55.507812 -40.585938 C 56.980469 -39.113281 59.296875 -38.378906 62.457031 -38.378906 L 82.355469 -38.378906 C 85.515625 -38.378906 87.832031 -39.113281 89.300781 -40.585938 C 90.773438 -42.058594 91.507812 -44.375 91.507812 -47.535156 L 91.507812 -84.566406 L 93.410156 -84.566406 L 93.410156 -82.664062 L 79.039062 -82.664062 C 77.039062 -82.664062 75.484375 -83.21875 74.378906 -84.328125 C 73.269531 -85.433594 72.714844 -86.988281 72.714844 -88.988281 L 72.714844 -116.621094 C 72.714844 -118.621094 73.269531 -120.175781 74.378906 -121.28125 C 75.484375 -122.390625 77.039062 -122.945312 79.039062 -122.945312 L 125.464844 -122.945312 C 127.464844 -122.945312 129.019531 -122.390625 130.125 -121.28125 C 131.234375 -120.175781 131.789062 -118.621094 131.789062 -116.621094 L 131.789062 -39.796875 C 131.789062 -26.375 128.195312 -16.070312 121.007812 -8.882812 C 113.816406 -1.695312 103.511719 1.898438 90.09375 1.898438 L 53.613281 1.898438 C 40.191406 1.898438 29.886719 -1.695312 22.699219 -8.882812 C 15.511719 -16.070312 11.917969 -26.375 11.917969 -39.796875 Z M 15.71875 -39.796875 C 15.71875 -27.421875 18.941406 -18.015625 25.386719 -11.570312 C 31.832031 -5.121094 41.242188 -1.898438 53.613281 -1.898438 L 90.09375 -1.898438 C 102.464844 -1.898438 111.875 -5.121094 118.320312 -11.570312 C 124.765625 -18.015625 127.988281 -27.421875 127.988281 -39.796875 L 127.988281 -116.621094 C 127.988281 -117.570312 127.804688 -118.230469 127.4375 -118.59375 C 127.074219 -118.960938 126.414062 -119.144531 125.464844 -119.144531 L 79.039062 -119.144531 C 78.089844 -119.144531 77.429688 -118.960938 77.066406 -118.59375 C 76.699219 -118.230469 76.515625 -117.570312 76.515625 -116.621094 L 76.515625 -88.988281 C 76.515625 -88.039062 76.699219 -87.378906 77.066406 -87.015625 C 77.429688 -86.648438 78.089844 -86.464844 79.039062 -86.464844 L 95.308594 -86.464844 L 95.308594 -47.535156 C 95.308594 -43.324219 94.203125 -40.113281 91.988281 -37.898438 C 89.773438 -35.6875 86.5625 -34.578125 82.355469 -34.578125 L 62.457031 -34.578125 C 58.246094 -34.578125 55.035156 -35.6875 52.824219 -37.898438 C 50.609375 -40.113281 49.503906 -43.324219 49.503906 -47.535156 L 49.503906 -173.550781 C 49.503906 -177.761719 50.609375 -180.972656 52.824219 -183.1875 C 55.035156 -185.398438 58.246094 -186.507812 62.457031 -186.507812 L 82.355469 -186.507812 C 86.5625 -186.507812 89.773438 -185.398438 91.988281 -183.1875 C 94.203125 -180.972656 95.308594 -177.761719 95.308594 -173.550781 L 95.308594 -152.550781 C 95.308594 -151.601562 95.492188 -150.941406 95.859375 -150.574219 C 96.222656 -150.210938 96.882812 -150.027344 97.832031 -150.027344 L 125.464844 -150.027344 C 126.414062 -150.027344 127.074219 -150.210938 127.4375 -150.574219 C 127.804688 -150.941406 127.988281 -151.601562 127.988281 -152.550781 L 127.988281 -181.289062 C 127.988281 -193.839844 124.769531 -203.292969 118.328125 -209.644531 C 111.882812 -216.003906 102.46875 -219.183594 90.09375 -219.183594 L 53.613281 -219.183594 C 41.234375 -219.183594 31.824219 -216.003906 25.378906 -209.644531 C 18.9375 -203.292969 15.71875 -193.839844 15.71875 -181.289062 Z M 15.71875 -39.796875 "/></g></g></g><g fill="#f2f2f2" fill-opacity="1"><g transform="translate(1078.330279, 335.225041)"><g><path d="M 125.984375 -216.664062 L 125.984375 -189.027344 C 125.984375 -186.960938 125.445312 -185.351562 124.363281 -184.203125 C 123.25 -183.019531 121.683594 -182.429688 119.664062 -182.429688 L 50.574219 -182.429688 L 50.574219 -184.328125 L 52.472656 -184.328125 L 52.472656 -129.058594 L 50.574219 -129.058594 L 50.574219 -130.957031 L 103.355469 -130.957031 C 105.378906 -130.957031 106.945312 -130.367188 108.058594 -129.1875 C 109.136719 -128.039062 109.679688 -126.429688 109.679688 -124.359375 L 109.679688 -97 C 109.679688 -94.933594 109.136719 -93.324219 108.058594 -92.175781 C 106.945312 -90.992188 105.378906 -90.402344 103.355469 -90.402344 L 50.574219 -90.402344 L 50.574219 -92.304688 L 52.472656 -92.304688 L 52.472656 -36.480469 L 50.574219 -36.480469 L 50.574219 -38.378906 L 119.664062 -38.378906 C 121.660156 -38.378906 123.214844 -37.824219 124.320312 -36.71875 C 125.429688 -35.609375 125.984375 -34.054688 125.984375 -32.058594 L 125.984375 -4.421875 C 125.984375 -2.421875 125.429688 -0.871094 124.320312 0.238281 C 123.214844 1.347656 121.660156 1.898438 119.664062 1.898438 L 17.964844 1.898438 C 16.03125 1.898438 14.535156 1.332031 13.46875 0.195312 C 12.433594 -0.910156 11.917969 -2.445312 11.917969 -4.421875 L 11.917969 -216.664062 C 11.917969 -218.636719 12.433594 -220.175781 13.46875 -221.28125 C 14.535156 -222.417969 16.03125 -222.984375 17.964844 -222.984375 L 119.664062 -222.984375 C 121.660156 -222.984375 123.214844 -222.429688 124.320312 -221.324219 C 125.429688 -220.214844 125.984375 -218.664062 125.984375 -216.664062 Z M 122.183594 -216.664062 C 122.183594 -217.613281 122 -218.269531 121.636719 -218.636719 C 121.269531 -219.003906 120.613281 -219.183594 119.664062 -219.183594 L 17.964844 -219.183594 C 17.128906 -219.183594 16.554688 -219.015625 16.242188 -218.679688 C 15.890625 -218.308594 15.71875 -217.636719 15.71875 -216.664062 L 15.71875 -4.421875 C 15.71875 -3.449219 15.890625 -2.777344 16.242188 -2.40625 C 16.554688 -2.066406 17.128906 -1.898438 17.964844 -1.898438 L 119.664062 -1.898438 C 120.613281 -1.898438 121.269531 -2.082031 121.636719 -2.449219 C 122 -2.816406 122.183594 -3.472656 122.183594 -4.421875 L 122.183594 -32.058594 C 122.183594 -33.007812 122 -33.664062 121.636719 -34.03125 C 121.269531 -34.394531 120.613281 -34.578125 119.664062 -34.578125 L 48.671875 -34.578125 L 48.671875 -94.203125 L 103.355469 -94.203125 C 104.285156 -94.203125 104.929688 -94.394531 105.289062 -94.78125 C 105.683594 -95.195312 105.878906 -95.9375 105.878906 -97 L 105.878906 -124.359375 C 105.878906 -125.425781 105.683594 -126.164062 105.289062 -126.582031 C 104.929688 -126.964844 104.285156 -127.160156 103.355469 -127.160156 L 48.671875 -127.160156 L 48.671875 -186.230469 L 119.664062 -186.230469 C 120.589844 -186.230469 121.234375 -186.421875 121.59375 -186.804688 C 121.988281 -187.222656 122.183594 -187.964844 122.183594 -189.027344 Z M 122.183594 -216.664062 "/></g></g></g><g fill="#f2f2f2" fill-opacity="1"><g transform="translate(1241.104602, 335.225041)"><g><path d="M 94.886719 -113.480469 L 138.828125 -7.359375 L 137.074219 -6.632812 L 138.773438 -7.480469 C 139.996094 -5.035156 140.070312 -2.871094 139 -0.992188 C 137.898438 0.9375 135.875 1.898438 132.925781 1.898438 L 104.460938 1.898438 C 100.496094 1.898438 97.792969 0.226562 96.359375 -3.121094 L 96.351562 -3.144531 L 69.808594 -70.046875 L 71.578125 -70.746094 L 73.34375 -70.046875 L 46.800781 -3.144531 L 46.792969 -3.121094 C 45.359375 0.226562 42.65625 1.898438 38.691406 1.898438 L 10.226562 1.898438 C 7.230469 1.898438 5.238281 0.90625 4.242188 -1.085938 C 3.34375 -2.882812 3.367188 -4.96875 4.316406 -7.339844 L 47.988281 -113.476562 L 49.746094 -112.753906 L 47.988281 -112.027344 L 5.964844 -213.765625 L 5.953125 -213.804688 C 5.019531 -216.363281 5.011719 -218.492188 5.925781 -220.191406 C 6.929688 -222.054688 8.914062 -222.984375 11.882812 -222.984375 L 39.519531 -222.984375 C 43.484375 -222.984375 46.1875 -221.3125 47.621094 -217.964844 L 47.632812 -217.9375 L 73.34375 -152.414062 L 71.578125 -151.71875 L 69.808594 -152.414062 L 95.519531 -217.9375 L 95.53125 -217.964844 C 96.964844 -221.3125 99.667969 -222.984375 103.632812 -222.984375 L 131.269531 -222.984375 C 134.1875 -222.984375 136.203125 -222.085938 137.308594 -220.285156 C 138.398438 -218.511719 138.34375 -216.308594 137.144531 -213.667969 L 135.414062 -214.453125 L 137.167969 -213.722656 L 94.886719 -112.023438 L 93.132812 -112.753906 Z M 91.074219 -112.753906 L 133.671875 -215.210938 L 133.683594 -215.238281 C 134.328125 -216.652344 134.457031 -217.671875 134.074219 -218.292969 C 133.707031 -218.886719 132.773438 -219.183594 131.269531 -219.183594 L 103.632812 -219.183594 C 101.335938 -219.183594 99.800781 -218.28125 99.023438 -216.46875 L 97.277344 -217.214844 L 99.046875 -216.523438 L 71.578125 -146.519531 L 44.105469 -216.523438 L 45.875 -217.214844 L 44.128906 -216.46875 C 43.351562 -218.28125 41.816406 -219.183594 39.519531 -219.183594 L 11.882812 -219.183594 C 10.429688 -219.183594 9.558594 -218.917969 9.273438 -218.386719 C 8.898438 -217.691406 8.980469 -216.59375 9.523438 -215.101562 L 7.738281 -214.453125 L 9.492188 -215.179688 L 51.800781 -112.753906 L 7.84375 -5.925781 C 7.316406 -4.613281 7.25 -3.566406 7.640625 -2.785156 C 7.9375 -2.195312 8.796875 -1.898438 10.226562 -1.898438 L 38.691406 -1.898438 C 40.988281 -1.898438 42.523438 -2.804688 43.300781 -4.617188 L 45.046875 -3.867188 L 43.28125 -4.570312 L 71.578125 -75.898438 L 99.871094 -4.570312 L 98.105469 -3.867188 L 99.851562 -4.617188 C 100.628906 -2.804688 102.167969 -1.898438 104.460938 -1.898438 L 132.925781 -1.898438 C 134.402344 -1.898438 135.328125 -2.226562 135.699219 -2.878906 C 136.101562 -3.578125 135.992188 -4.546875 135.375 -5.78125 L 135.34375 -5.84375 L 91.375 -112.027344 Z M 91.074219 -112.753906 "/></g></g></g><g fill="#423d3f" fill-opacity="1"><g transform="translate(909.752489, 335.225041)"><g><path d="M 13.8125 -39.796875 L 13.8125 -181.296875 C 13.8125 -194.367188 17.21875 -204.269531 24.03125 -211 C 30.851562 -217.726562 40.710938 -221.09375 53.609375 -221.09375 L 90.09375 -221.09375 C 102.988281 -221.09375 112.84375 -217.726562 119.65625 -211 C 126.476562 -204.269531 129.890625 -194.367188 129.890625 -181.296875 L 129.890625 -152.546875 C 129.890625 -149.597656 128.414062 -148.125 125.46875 -148.125 L 97.828125 -148.125 C 94.878906 -148.125 93.40625 -149.597656 93.40625 -152.546875 L 93.40625 -173.546875 C 93.40625 -180.921875 89.722656 -184.609375 82.359375 -184.609375 L 62.453125 -184.609375 C 55.085938 -184.609375 51.40625 -180.921875 51.40625 -173.546875 L 51.40625 -47.53125 C 51.40625 -40.164062 55.085938 -36.484375 62.453125 -36.484375 L 82.359375 -36.484375 C 89.722656 -36.484375 93.40625 -40.164062 93.40625 -47.53125 L 93.40625 -84.5625 L 79.03125 -84.5625 C 76.082031 -84.5625 74.609375 -86.035156 74.609375 -88.984375 L 74.609375 -116.625 C 74.609375 -119.570312 76.082031 -121.046875 79.03125 -121.046875 L 125.46875 -121.046875 C 128.414062 -121.046875 129.890625 -119.570312 129.890625 -116.625 L 129.890625 -39.796875 C 129.890625 -26.898438 126.476562 -17.039062 119.65625 -10.21875 C 112.84375 -3.40625 102.988281 0 90.09375 0 L 53.609375 0 C 40.710938 0 30.851562 -3.40625 24.03125 -10.21875 C 17.21875 -17.039062 13.8125 -26.898438 13.8125 -39.796875 Z M 13.8125 -39.796875 "/></g></g></g><g fill="#423d3f" fill-opacity="1"><g transform="translate(1078.330279, 335.225041)"><g><path d="M 124.078125 -216.671875 L 124.078125 -189.03125 C 124.078125 -185.894531 122.601562 -184.328125 119.65625 -184.328125 L 50.578125 -184.328125 L 50.578125 -129.0625 L 103.359375 -129.0625 C 106.304688 -129.0625 107.78125 -127.492188 107.78125 -124.359375 L 107.78125 -97 C 107.78125 -93.863281 106.304688 -92.296875 103.359375 -92.296875 L 50.578125 -92.296875 L 50.578125 -36.484375 L 119.65625 -36.484375 C 122.601562 -36.484375 124.078125 -35.007812 124.078125 -32.0625 L 124.078125 -4.421875 C 124.078125 -1.472656 122.601562 0 119.65625 0 L 17.96875 0 C 15.195312 0 13.8125 -1.472656 13.8125 -4.421875 L 13.8125 -216.671875 C 13.8125 -219.617188 15.195312 -221.09375 17.96875 -221.09375 L 119.65625 -221.09375 C 122.601562 -221.09375 124.078125 -219.617188 124.078125 -216.671875 Z M 124.078125 -216.671875 "/></g></g></g><g fill="#423d3f" fill-opacity="1"><g transform="translate(1241.104602, 335.225041)"><g><path d="M 93.140625 -112.75 L 137.078125 -6.625 C 137.992188 -4.789062 138.082031 -3.226562 137.34375 -1.9375 C 136.613281 -0.644531 135.140625 0 132.921875 0 L 104.46875 0 C 101.332031 0 99.210938 -1.289062 98.109375 -3.875 L 71.578125 -70.75 L 45.046875 -3.875 C 43.941406 -1.289062 41.820312 0 38.6875 0 L 10.21875 0 C 8.007812 0 6.582031 -0.644531 5.9375 -1.9375 C 5.289062 -3.226562 5.335938 -4.789062 6.078125 -6.625 L 49.75 -112.75 L 7.734375 -214.453125 C 6.992188 -216.484375 6.945312 -218.097656 7.59375 -219.296875 C 8.238281 -220.492188 9.671875 -221.09375 11.890625 -221.09375 L 39.515625 -221.09375 C 42.648438 -221.09375 44.769531 -219.800781 45.875 -217.21875 L 71.578125 -151.71875 L 97.28125 -217.21875 C 98.382812 -219.800781 100.503906 -221.09375 103.640625 -221.09375 L 131.265625 -221.09375 C 133.484375 -221.09375 134.957031 -220.492188 135.6875 -219.296875 C 136.425781 -218.097656 136.335938 -216.484375 135.421875 -214.453125 Z M 93.140625 -112.75 "/></g></g></g><g clip-path="url(#97d3598e1c)"><path fill="#423d3f" d="M 604.667969 214.011719 L 588.496094 214.011719 C 593.914062 139.257812 653.804688 79.375 728.558594 73.984375 L 728.558594 90.15625 C 662.683594 95.445312 609.992188 148.140625 604.667969 214.011719 Z M 750.574219 359.894531 L 750.574219 376.066406 C 825.324219 370.675781 885.222656 310.785156 890.605469 236.027344 L 874.4375 236.027344 C 869.117188 301.875 816.421875 354.570312 750.574219 359.894531 Z M 874.4375 214.011719 L 890.578125 214.011719 C 885.195312 139.257812 825.296875 79.375 750.574219 73.984375 L 750.574219 90.15625 C 816.421875 95.445312 869.117188 148.140625 874.4375 214.011719 Z M 604.667969 236 L 588.496094 236 C 593.886719 310.757812 653.777344 370.648438 728.53125 376.039062 L 728.53125 359.867188 C 662.683594 354.570312 609.992188 301.875 604.667969 236 Z M 739.550781 293.148438 C 738.433594 293.148438 737.320312 293.121094 736.207031 293.066406 C 735.09375 293.011719 733.980469 292.929688 732.871094 292.820312 C 731.761719 292.710938 730.652344 292.574219 729.550781 292.410156 C 728.449219 292.25 727.347656 292.058594 726.253906 291.839844 C 725.160156 291.621094 724.074219 291.378906 722.992188 291.105469 C 721.910156 290.835938 720.835938 290.539062 719.769531 290.214844 C 718.703125 289.890625 717.644531 289.542969 716.59375 289.164062 C 715.542969 288.789062 714.503906 288.390625 713.472656 287.960938 C 712.441406 287.535156 711.421875 287.082031 710.414062 286.605469 C 709.40625 286.128906 708.410156 285.628906 707.425781 285.101562 C 706.441406 284.578125 705.472656 284.027344 704.515625 283.453125 C 703.558594 282.882812 702.617188 282.285156 701.691406 281.664062 C 700.761719 281.046875 699.851562 280.402344 698.957031 279.738281 C 698.058594 279.074219 697.179688 278.386719 696.320312 277.679688 C 695.457031 276.972656 694.613281 276.246094 693.785156 275.496094 C 692.960938 274.746094 692.152344 273.980469 691.363281 273.191406 C 690.574219 272.402344 689.804688 271.59375 689.058594 270.769531 C 688.308594 269.941406 687.582031 269.097656 686.871094 268.234375 C 686.164062 267.371094 685.480469 266.492188 684.816406 265.597656 C 684.152344 264.703125 683.507812 263.789062 682.890625 262.863281 C 682.269531 261.9375 681.671875 260.996094 681.101562 260.039062 C 680.527344 259.082031 679.976562 258.109375 679.449219 257.128906 C 678.925781 256.144531 678.425781 255.148438 677.949219 254.140625 C 677.46875 253.132812 677.019531 252.113281 676.59375 251.082031 C 676.164062 250.050781 675.765625 249.011719 675.386719 247.960938 C 675.011719 246.910156 674.664062 245.851562 674.339844 244.785156 C 674.015625 243.71875 673.71875 242.644531 673.445312 241.5625 C 673.175781 240.480469 672.929688 239.390625 672.714844 238.296875 C 672.496094 237.203125 672.304688 236.105469 672.140625 235.003906 C 671.980469 233.898438 671.84375 232.792969 671.734375 231.683594 C 671.625 230.574219 671.542969 229.460938 671.488281 228.347656 C 671.433594 227.234375 671.40625 226.121094 671.40625 225.003906 C 671.40625 223.890625 671.433594 222.773438 671.488281 221.660156 C 671.542969 220.546875 671.625 219.433594 671.734375 218.324219 C 671.84375 217.214844 671.980469 216.109375 672.140625 215.003906 C 672.304688 213.902344 672.496094 212.804688 672.714844 211.710938 C 672.929688 210.617188 673.175781 209.527344 673.445312 208.445312 C 673.71875 207.363281 674.015625 206.289062 674.339844 205.222656 C 674.664062 204.15625 675.011719 203.097656 675.386719 202.046875 C 675.765625 200.996094 676.164062 199.957031 676.59375 198.925781 C 677.019531 197.894531 677.46875 196.875 677.949219 195.867188 C 678.425781 194.859375 678.925781 193.863281 679.449219 192.878906 C 679.976562 191.898438 680.527344 190.925781 681.101562 189.96875 C 681.671875 189.011719 682.269531 188.070312 682.890625 187.144531 C 683.507812 186.21875 684.152344 185.304688 684.816406 184.410156 C 685.480469 183.515625 686.164062 182.636719 686.871094 181.773438 C 687.582031 180.910156 688.308594 180.066406 689.058594 179.242188 C 689.804688 178.414062 690.574219 177.605469 691.363281 176.816406 C 692.152344 176.027344 692.960938 175.261719 693.785156 174.511719 C 694.613281 173.761719 695.457031 173.035156 696.320312 172.328125 C 697.179688 171.621094 698.058594 170.933594 698.957031 170.269531 C 699.851562 169.605469 700.761719 168.960938 701.691406 168.34375 C 702.617188 167.722656 703.558594 167.128906 704.515625 166.554688 C 705.472656 165.980469 706.441406 165.429688 707.425781 164.90625 C 708.410156 164.378906 709.40625 163.878906 710.414062 163.402344 C 711.421875 162.925781 712.441406 162.472656 713.472656 162.046875 C 714.503906 161.617188 715.542969 161.21875 716.59375 160.84375 C 717.644531 160.464844 718.703125 160.117188 719.769531 159.792969 C 720.835938 159.46875 721.910156 159.171875 722.992188 158.902344 C 724.074219 158.628906 725.160156 158.386719 726.253906 158.167969 C 727.347656 157.949219 728.449219 157.757812 729.550781 157.597656 C 730.652344 157.433594 731.761719 157.296875 732.871094 157.1875 C 733.980469 157.078125 735.09375 156.996094 736.207031 156.941406 C 737.320312 156.886719 738.433594 156.859375 739.550781 156.859375 C 740.664062 156.859375 741.78125 156.886719 742.894531 156.941406 C 744.007812 156.996094 745.121094 157.078125 746.230469 157.1875 C 747.339844 157.296875 748.445312 157.433594 749.550781 157.597656 C 750.652344 157.757812 751.75 157.949219 752.84375 158.167969 C 753.9375 158.386719 755.027344 158.628906 756.109375 158.902344 C 757.191406 159.171875 758.265625 159.46875 759.332031 159.792969 C 760.398438 160.117188 761.457031 160.464844 762.507812 160.84375 C 763.558594 161.21875 764.597656 161.617188 765.628906 162.046875 C 766.660156 162.472656 767.679688 162.925781 768.6875 163.402344 C 769.695312 163.878906 770.691406 164.378906 771.671875 164.90625 C 772.65625 165.429688 773.628906 165.980469 774.582031 166.554688 C 775.539062 167.128906 776.480469 167.722656 777.410156 168.34375 C 778.335938 168.960938 779.25 169.605469 780.144531 170.269531 C 781.039062 170.933594 781.917969 171.621094 782.78125 172.328125 C 783.644531 173.035156 784.488281 173.761719 785.3125 174.511719 C 786.140625 175.261719 786.949219 176.027344 787.734375 176.816406 C 788.523438 177.605469 789.292969 178.414062 790.042969 179.242188 C 790.792969 180.066406 791.519531 180.910156 792.226562 181.773438 C 792.933594 182.636719 793.621094 183.515625 794.285156 184.410156 C 794.949219 185.304688 795.589844 186.21875 796.210938 187.144531 C 796.832031 188.070312 797.425781 189.011719 798 189.96875 C 798.574219 190.925781 799.125 191.898438 799.648438 192.878906 C 800.175781 193.863281 800.675781 194.859375 801.152344 195.867188 C 801.628906 196.875 802.082031 197.894531 802.507812 198.925781 C 802.933594 199.957031 803.335938 200.996094 803.710938 202.046875 C 804.085938 203.097656 804.4375 204.15625 804.761719 205.222656 C 805.085938 206.289062 805.382812 207.363281 805.652344 208.445312 C 805.925781 209.527344 806.167969 210.617188 806.386719 211.710938 C 806.605469 212.804688 806.792969 213.902344 806.957031 215.003906 C 807.121094 216.109375 807.257812 217.214844 807.367188 218.324219 C 807.476562 219.433594 807.558594 220.546875 807.613281 221.660156 C 807.667969 222.773438 807.695312 223.890625 807.695312 225.003906 C 807.695312 226.117188 807.664062 227.234375 807.609375 228.347656 C 807.554688 229.460938 807.472656 230.570312 807.359375 231.679688 C 807.25 232.789062 807.113281 233.898438 806.949219 235 C 806.785156 236.101562 806.59375 237.199219 806.375 238.292969 C 806.15625 239.386719 805.910156 240.472656 805.640625 241.554688 C 805.367188 242.636719 805.070312 243.710938 804.746094 244.777344 C 804.421875 245.84375 804.070312 246.902344 803.695312 247.953125 C 803.316406 249 802.914062 250.039062 802.488281 251.070312 C 802.0625 252.101562 801.609375 253.117188 801.132812 254.125 C 800.65625 255.132812 800.152344 256.128906 799.628906 257.113281 C 799.101562 258.097656 798.550781 259.066406 797.976562 260.023438 C 797.40625 260.976562 796.808594 261.917969 796.1875 262.847656 C 795.570312 263.773438 794.925781 264.683594 794.261719 265.578125 C 793.597656 266.476562 792.910156 267.351562 792.203125 268.214844 C 791.496094 269.078125 790.769531 269.921875 790.019531 270.746094 C 789.269531 271.574219 788.503906 272.378906 787.714844 273.167969 C 786.925781 273.957031 786.117188 274.726562 785.292969 275.472656 C 784.46875 276.222656 783.621094 276.949219 782.761719 277.660156 C 781.898438 278.367188 781.019531 279.050781 780.125 279.714844 C 779.230469 280.378906 778.320312 281.023438 777.390625 281.640625 C 776.464844 282.261719 775.523438 282.859375 774.566406 283.433594 C 773.613281 284.003906 772.640625 284.554688 771.660156 285.082031 C 770.675781 285.605469 769.679688 286.109375 768.671875 286.585938 C 767.664062 287.0625 766.648438 287.515625 765.617188 287.941406 C 764.585938 288.371094 763.546875 288.769531 762.496094 289.148438 C 761.449219 289.523438 760.390625 289.875 759.324219 290.199219 C 758.257812 290.523438 757.183594 290.820312 756.101562 291.09375 C 755.019531 291.363281 753.933594 291.609375 752.839844 291.828125 C 751.746094 292.046875 750.648438 292.238281 749.546875 292.402344 C 748.441406 292.566406 747.335938 292.703125 746.226562 292.816406 C 745.117188 292.925781 744.007812 293.007812 742.894531 293.0625 C 741.777344 293.121094 740.664062 293.148438 739.550781 293.148438 Z M 799.824219 225.003906 C 799.824219 223.03125 799.726562 221.058594 799.535156 219.097656 C 799.339844 217.132812 799.050781 215.179688 798.667969 213.246094 C 798.28125 211.308594 797.800781 209.394531 797.230469 207.507812 C 796.65625 205.617188 795.992188 203.761719 795.238281 201.9375 C 794.480469 200.113281 793.636719 198.332031 792.707031 196.589844 C 791.777344 194.847656 790.761719 193.160156 789.667969 191.515625 C 788.570312 189.875 787.394531 188.292969 786.144531 186.765625 C 784.890625 185.238281 783.566406 183.777344 782.171875 182.382812 C 780.773438 180.988281 779.3125 179.664062 777.789062 178.410156 C 776.261719 177.160156 774.679688 175.984375 773.035156 174.886719 C 771.394531 173.789062 769.703125 172.777344 767.964844 171.847656 C 766.222656 170.914062 764.441406 170.074219 762.617188 169.316406 C 760.792969 168.5625 758.9375 167.898438 757.046875 167.324219 C 755.15625 166.75 753.246094 166.273438 751.308594 165.886719 C 749.371094 165.503906 747.421875 165.210938 745.457031 165.019531 C 743.492188 164.824219 741.523438 164.730469 739.550781 164.730469 C 737.574219 164.730469 735.605469 164.824219 733.640625 165.019531 C 731.675781 165.210938 729.726562 165.503906 727.789062 165.886719 C 725.855469 166.273438 723.941406 166.75 722.054688 167.324219 C 720.164062 167.898438 718.308594 168.5625 716.484375 169.316406 C 714.660156 170.074219 712.878906 170.914062 711.136719 171.847656 C 709.394531 172.777344 707.703125 173.789062 706.0625 174.886719 C 704.421875 175.984375 702.839844 177.160156 701.3125 178.410156 C 699.785156 179.664062 698.324219 180.988281 696.929688 182.382812 C 695.535156 183.777344 694.210938 185.238281 692.957031 186.765625 C 691.703125 188.292969 690.53125 189.875 689.433594 191.515625 C 688.335938 193.160156 687.324219 194.847656 686.390625 196.589844 C 685.460938 198.332031 684.617188 200.113281 683.863281 201.9375 C 683.109375 203.761719 682.445312 205.617188 681.871094 207.507812 C 681.296875 209.394531 680.820312 211.308594 680.433594 213.246094 C 680.046875 215.179688 679.757812 217.132812 679.566406 219.097656 C 679.371094 221.0625 679.273438 223.03125 679.273438 225.003906 C 679.273438 226.976562 679.371094 228.949219 679.566406 230.910156 C 679.757812 232.875 680.046875 234.828125 680.433594 236.761719 C 680.820312 238.699219 681.296875 240.613281 681.871094 242.5 C 682.445312 244.390625 683.109375 246.246094 683.863281 248.070312 C 684.617188 249.894531 685.460938 251.675781 686.390625 253.417969 C 687.324219 255.160156 688.335938 256.847656 689.433594 258.492188 C 690.53125 260.132812 691.703125 261.714844 692.957031 263.242188 C 694.210938 264.769531 695.535156 266.230469 696.929688 267.625 C 698.324219 269.019531 699.785156 270.34375 701.3125 271.597656 C 702.839844 272.847656 704.421875 274.023438 706.0625 275.121094 C 707.703125 276.21875 709.394531 277.230469 711.136719 278.160156 C 712.878906 279.09375 714.660156 279.933594 716.484375 280.691406 C 718.308594 281.445312 720.164062 282.109375 722.054688 282.683594 C 723.941406 283.257812 725.855469 283.734375 727.789062 284.121094 C 729.726562 284.507812 731.675781 284.796875 733.640625 284.988281 C 735.605469 285.183594 737.574219 285.277344 739.550781 285.277344 C 741.523438 285.277344 743.492188 285.179688 745.457031 284.984375 C 747.417969 284.789062 749.371094 284.496094 751.304688 284.109375 C 753.238281 283.722656 755.152344 283.242188 757.039062 282.667969 C 758.925781 282.09375 760.78125 281.429688 762.605469 280.671875 C 764.429688 279.917969 766.210938 279.074219 767.949219 278.140625 C 769.691406 277.210938 771.378906 276.195312 773.019531 275.101562 C 774.660156 274.003906 776.246094 272.828125 777.769531 271.578125 C 779.296875 270.324219 780.753906 269 782.152344 267.605469 C 783.546875 266.210938 784.871094 264.75 786.121094 263.222656 C 787.375 261.699219 788.550781 260.117188 789.644531 258.476562 C 790.742188 256.835938 791.757812 255.144531 792.6875 253.402344 C 793.617188 251.664062 794.460938 249.882812 795.21875 248.058594 C 795.976562 246.238281 796.640625 244.382812 797.214844 242.492188 C 797.789062 240.605469 798.269531 238.695312 798.65625 236.757812 C 799.042969 234.824219 799.332031 232.875 799.527344 230.910156 C 799.722656 228.945312 799.824219 226.976562 799.824219 225.003906 Z M 799.824219 225.003906 " fill-opacity="1" fill-rule="nonzero"/></g><path fill="#f45854" d="M 728.558594 338.382812 L 728.558594 342.425781 C 672.28125 337.199219 627.355469 292.273438 622.09375 235.996094 L 626.136719 235.996094 C 631.378906 290.054688 674.503906 333.183594 728.558594 338.382812 Z M 750.546875 338.382812 L 750.546875 342.425781 C 806.820312 337.203125 851.75 292.308594 856.972656 236 L 852.929688 236 C 847.726562 290.054688 804.601562 333.183594 750.574219 338.382812 Z M 852.929688 214.011719 L 856.972656 214.011719 C 851.75 157.742188 806.820312 112.808594 750.574219 107.582031 L 750.574219 111.625 C 804.601562 116.832031 847.726562 159.957031 852.929688 214.011719 Z M 728.558594 111.628906 L 728.558594 107.585938 C 672.28125 112.816406 627.355469 157.746094 622.09375 214.054688 L 626.136719 214.054688 C 631.378906 159.957031 674.503906 116.832031 728.558594 111.628906 Z M 739.550781 199.828125 C 740.375 199.828125 741.199219 199.871094 742.019531 199.949219 C 742.839844 200.03125 743.65625 200.152344 744.464844 200.3125 C 745.273438 200.472656 746.070312 200.671875 746.859375 200.910156 C 747.648438 201.152344 748.425781 201.429688 749.1875 201.742188 C 749.949219 202.058594 750.695312 202.410156 751.421875 202.800781 C 752.148438 203.1875 752.855469 203.613281 753.542969 204.070312 C 754.226562 204.527344 754.890625 205.019531 755.527344 205.542969 C 756.164062 206.066406 756.777344 206.617188 757.359375 207.203125 C 757.941406 207.785156 758.496094 208.394531 759.019531 209.03125 C 759.542969 209.671875 760.035156 210.332031 760.492188 211.015625 C 760.949219 211.703125 761.375 212.410156 761.761719 213.136719 C 762.152344 213.863281 762.503906 214.609375 762.820312 215.371094 C 763.136719 216.132812 763.414062 216.910156 763.652344 217.699219 C 763.890625 218.488281 764.09375 219.285156 764.253906 220.09375 C 764.414062 220.902344 764.535156 221.71875 764.617188 222.539062 C 764.699219 223.359375 764.738281 224.183594 764.738281 225.007812 C 764.738281 225.832031 764.699219 226.65625 764.617188 227.476562 C 764.535156 228.296875 764.414062 229.113281 764.253906 229.921875 C 764.09375 230.730469 763.894531 231.53125 763.65625 232.320312 C 763.414062 233.109375 763.136719 233.882812 762.820312 234.644531 C 762.507812 235.40625 762.152344 236.152344 761.765625 236.878906 C 761.375 237.609375 760.953125 238.3125 760.496094 239 C 760.035156 239.6875 759.546875 240.347656 759.023438 240.984375 C 758.5 241.621094 757.945312 242.234375 757.363281 242.816406 C 756.78125 243.398438 756.167969 243.953125 755.53125 244.476562 C 754.894531 245 754.230469 245.492188 753.546875 245.949219 C 752.859375 246.40625 752.152344 246.832031 751.425781 247.21875 C 750.699219 247.609375 749.953125 247.960938 749.191406 248.277344 C 748.429688 248.589844 747.65625 248.867188 746.863281 249.109375 C 746.074219 249.347656 745.277344 249.546875 744.46875 249.707031 C 743.660156 249.871094 742.84375 249.988281 742.023438 250.070312 C 741.203125 250.152344 740.378906 250.191406 739.554688 250.191406 C 738.730469 250.191406 737.90625 250.152344 737.085938 250.070312 C 736.265625 249.988281 735.449219 249.867188 734.640625 249.707031 C 733.832031 249.546875 733.035156 249.347656 732.242188 249.105469 C 731.453125 248.867188 730.679688 248.589844 729.917969 248.273438 C 729.15625 247.957031 728.410156 247.605469 727.683594 247.21875 C 726.957031 246.828125 726.25 246.40625 725.5625 245.945312 C 724.878906 245.488281 724.214844 244.996094 723.578125 244.472656 C 722.941406 243.949219 722.332031 243.398438 721.746094 242.8125 C 721.164062 242.230469 720.613281 241.621094 720.089844 240.980469 C 719.566406 240.34375 719.074219 239.683594 718.617188 238.996094 C 718.160156 238.3125 717.734375 237.605469 717.347656 236.875 C 716.957031 236.148438 716.605469 235.402344 716.289062 234.640625 C 715.976562 233.878906 715.695312 233.105469 715.457031 232.316406 C 715.21875 231.527344 715.019531 230.726562 714.859375 229.917969 C 714.699219 229.109375 714.578125 228.292969 714.496094 227.472656 C 714.414062 226.652344 714.375 225.828125 714.375 225.003906 C 714.375 224.179688 714.417969 223.359375 714.5 222.539062 C 714.582031 221.71875 714.703125 220.902344 714.863281 220.09375 C 715.023438 219.285156 715.226562 218.488281 715.464844 217.699219 C 715.707031 216.910156 715.984375 216.136719 716.300781 215.375 C 716.613281 214.613281 716.96875 213.867188 717.355469 213.140625 C 717.746094 212.414062 718.167969 211.710938 718.625 211.023438 C 719.085938 210.339844 719.574219 209.675781 720.097656 209.039062 C 720.621094 208.402344 721.175781 207.792969 721.757812 207.210938 C 722.339844 206.628906 722.949219 206.074219 723.585938 205.550781 C 724.222656 205.027344 724.886719 204.539062 725.570312 204.082031 C 726.253906 203.621094 726.960938 203.199219 727.6875 202.808594 C 728.414062 202.421875 729.160156 202.070312 729.921875 201.753906 C 730.683594 201.4375 731.457031 201.160156 732.246094 200.917969 C 733.035156 200.679688 733.832031 200.480469 734.640625 200.316406 C 735.449219 200.15625 736.261719 200.035156 737.082031 199.953125 C 737.902344 199.871094 738.726562 199.832031 739.550781 199.828125 Z M 739.550781 202.449219 C 738.8125 202.449219 738.074219 202.484375 737.339844 202.558594 C 736.601562 202.628906 735.871094 202.738281 735.148438 202.882812 C 734.421875 203.027344 733.707031 203.207031 733 203.421875 C 732.292969 203.632812 731.597656 203.882812 730.914062 204.164062 C 730.230469 204.449219 729.566406 204.765625 728.914062 205.113281 C 728.261719 205.460938 727.628906 205.839844 727.015625 206.25 C 726.398438 206.660156 725.804688 207.101562 725.234375 207.570312 C 724.664062 208.035156 724.117188 208.53125 723.59375 209.054688 C 723.070312 209.578125 722.574219 210.125 722.105469 210.695312 C 721.636719 211.265625 721.199219 211.859375 720.789062 212.472656 C 720.375 213.089844 719.996094 213.722656 719.648438 214.371094 C 719.300781 215.023438 718.984375 215.691406 718.703125 216.375 C 718.417969 217.058594 718.171875 217.75 717.957031 218.457031 C 717.742188 219.164062 717.5625 219.882812 717.417969 220.605469 C 717.273438 221.332031 717.164062 222.0625 717.09375 222.796875 C 717.019531 223.53125 716.984375 224.269531 716.984375 225.007812 C 716.984375 225.746094 717.019531 226.484375 717.089844 227.21875 C 717.164062 227.957031 717.273438 228.683594 717.417969 229.410156 C 717.558594 230.136719 717.738281 230.851562 717.953125 231.558594 C 718.167969 232.265625 718.417969 232.960938 718.699219 233.644531 C 718.984375 234.324219 719.296875 234.992188 719.648438 235.644531 C 719.996094 236.296875 720.375 236.929688 720.785156 237.542969 C 721.195312 238.160156 721.636719 238.75 722.105469 239.324219 C 722.574219 239.894531 723.066406 240.441406 723.589844 240.964844 C 724.113281 241.484375 724.660156 241.980469 725.230469 242.449219 C 725.804688 242.917969 726.394531 243.359375 727.011719 243.769531 C 727.625 244.179688 728.257812 244.558594 728.910156 244.90625 C 729.5625 245.253906 730.226562 245.570312 730.910156 245.855469 C 731.59375 246.136719 732.289062 246.386719 732.996094 246.601562 C 733.703125 246.8125 734.417969 246.992188 735.144531 247.136719 C 735.867188 247.28125 736.597656 247.390625 737.335938 247.460938 C 738.070312 247.535156 738.804688 247.570312 739.546875 247.570312 C 740.285156 247.570312 741.023438 247.535156 741.757812 247.460938 C 742.492188 247.390625 743.222656 247.28125 743.949219 247.136719 C 744.671875 246.992188 745.386719 246.8125 746.09375 246.597656 C 746.800781 246.382812 747.496094 246.136719 748.179688 245.851562 C 748.863281 245.570312 749.53125 245.253906 750.179688 244.90625 C 750.832031 244.558594 751.464844 244.175781 752.082031 243.765625 C 752.695312 243.355469 753.289062 242.917969 753.859375 242.445312 C 754.429688 241.976562 754.976562 241.484375 755.5 240.960938 C 756.019531 240.4375 756.515625 239.890625 756.984375 239.320312 C 757.453125 238.746094 757.894531 238.15625 758.304688 237.539062 C 758.714844 236.925781 759.09375 236.292969 759.441406 235.640625 C 759.789062 234.988281 760.105469 234.320312 760.386719 233.640625 C 760.671875 232.957031 760.917969 232.261719 761.132812 231.554688 C 761.347656 230.847656 761.527344 230.128906 761.671875 229.40625 C 761.816406 228.679688 761.921875 227.949219 761.996094 227.214844 C 762.066406 226.480469 762.105469 225.742188 762.101562 225.003906 C 762.101562 224.265625 762.066406 223.527344 761.992188 222.792969 C 761.917969 222.058594 761.808594 221.328125 761.664062 220.605469 C 761.519531 219.882812 761.339844 219.167969 761.125 218.460938 C 760.910156 217.753906 760.664062 217.058594 760.378906 216.378906 C 760.097656 215.695312 759.78125 215.027344 759.433594 214.378906 C 759.085938 213.726562 758.703125 213.09375 758.292969 212.480469 C 757.882812 211.867188 757.445312 211.273438 756.976562 210.703125 C 756.507812 210.132812 756.011719 209.585938 755.488281 209.0625 C 754.96875 208.542969 754.421875 208.046875 753.851562 207.578125 C 753.28125 207.109375 752.6875 206.671875 752.074219 206.257812 C 751.460938 205.847656 750.828125 205.46875 750.175781 205.121094 C 749.523438 204.773438 748.859375 204.457031 748.175781 204.175781 C 747.496094 203.890625 746.800781 203.640625 746.09375 203.425781 C 745.386719 203.210938 744.671875 203.03125 743.949219 202.886719 C 743.222656 202.742188 742.496094 202.632812 741.761719 202.5625 C 741.023438 202.488281 740.289062 202.453125 739.550781 202.449219 Z M 738.242188 193.488281 L 740.863281 193.488281 L 740.863281 140.019531 L 748.277344 140.019531 L 748.277344 137.390625 L 740.863281 137.390625 L 740.863281 124.292969 L 748.277344 124.292969 L 748.277344 121.671875 L 740.863281 121.671875 L 740.863281 96.488281 L 738.242188 96.488281 L 738.242188 121.671875 L 730.832031 121.671875 L 730.832031 124.292969 L 738.242188 124.292969 L 738.242188 137.410156 L 730.832031 137.410156 L 730.832031 140.019531 L 738.242188 140.019531 Z M 740.863281 256.527344 L 738.242188 256.527344 L 738.242188 309.976562 L 730.832031 309.976562 L 730.832031 312.601562 L 738.242188 312.601562 L 738.242188 325.722656 L 730.832031 325.722656 L 730.832031 328.34375 L 738.242188 328.34375 L 738.242188 353.527344 L 740.863281 353.527344 L 740.863281 328.34375 L 748.277344 328.34375 L 748.277344 325.722656 L 740.863281 325.722656 L 740.863281 312.601562 L 748.277344 312.601562 L 748.277344 309.976562 L 740.863281 309.976562 Z M 842.890625 223.695312 L 842.890625 216.285156 L 840.269531 216.285156 L 840.269531 223.695312 L 827.140625 223.695312 L 827.140625 216.285156 L 824.519531 216.285156 L 824.519531 223.695312 L 771.074219 223.695312 L 771.074219 226.316406 L 824.519531 226.316406 L 824.519531 233.730469 L 827.140625 233.730469 L 827.140625 226.316406 L 840.269531 226.316406 L 840.269531 233.730469 L 842.890625 233.730469 L 842.890625 226.316406 L 868.070312 226.316406 L 868.070312 223.695312 Z M 636.210938 233.75 L 638.839844 233.75 L 638.839844 226.339844 L 651.957031 226.339844 L 651.957031 233.75 L 654.578125 233.75 L 654.578125 226.339844 L 708.035156 226.339844 L 708.035156 223.71875 L 654.578125 223.71875 L 654.578125 216.304688 L 651.957031 216.304688 L 651.957031 223.71875 L 638.839844 223.71875 L 638.839844 216.304688 L 636.210938 216.304688 L 636.210938 223.71875 L 611.035156 223.71875 L 611.035156 226.339844 L 636.210938 226.339844 Z M 636.210938 233.75 " fill-opacity="1" fill-rule="nonzero"/></svg>