<svg xmlns="http://www.w3.org/2000/svg" xmlns:xlink="http://www.w3.org/1999/xlink" width="2000" zoomAndPan="magnify" viewBox="0 0 1500 1499.999933" height="2000" preserveAspectRatio="xMidYMid meet" version="1.0"><defs><clipPath id="adf1c30ddf"><path d="M 535.660156 534.132812 L 964.660156 534.132812 L 964.660156 963 L 535.660156 963 Z M 535.660156 534.132812 " clip-rule="nonzero"/></clipPath></defs><path fill="#f45854" d="M 925.855469 745.753906 L 885.785156 745.753906 L 885.785156 725.492188 C 885.785156 723.996094 884.570312 722.777344 883.074219 722.777344 C 881.578125 722.777344 880.359375 723.996094 880.359375 725.492188 L 880.359375 745.753906 L 841.433594 745.753906 L 841.433594 725.492188 C 841.433594 723.996094 840.21875 722.777344 838.71875 722.777344 C 837.222656 722.777344 836.007812 723.996094 836.007812 725.492188 L 836.007812 745.753906 L 797.058594 745.753906 L 797.058594 725.492188 C 797.058594 723.996094 795.84375 722.777344 794.34375 722.777344 C 792.847656 722.777344 791.632812 723.996094 791.632812 725.492188 L 791.632812 745.753906 L 752.707031 745.753906 L 752.707031 706.832031 L 772.96875 706.832031 C 774.46875 706.832031 775.683594 705.617188 775.683594 704.117188 C 775.683594 702.621094 774.46875 701.40625 772.96875 701.40625 L 752.707031 701.40625 L 752.707031 662.457031 L 772.96875 662.457031 C 774.46875 662.457031 775.683594 661.242188 775.683594 659.742188 C 775.683594 658.246094 774.46875 657.03125 772.96875 657.03125 L 752.707031 657.03125 L 752.707031 618.101562 L 772.96875 618.101562 C 774.46875 618.101562 775.683594 616.886719 775.683594 615.390625 C 775.683594 613.890625 774.46875 612.675781 772.96875 612.675781 L 752.707031 612.675781 L 752.707031 572.609375 C 752.707031 571.109375 751.492188 569.894531 749.996094 569.894531 C 748.5 569.894531 747.28125 571.109375 747.28125 572.609375 L 747.28125 612.675781 L 727.019531 612.675781 C 725.523438 612.675781 724.308594 613.890625 724.308594 615.390625 C 724.308594 616.886719 725.523438 618.101562 727.019531 618.101562 L 747.28125 618.101562 L 747.28125 657.03125 L 727.019531 657.03125 C 725.523438 657.03125 724.308594 658.246094 724.308594 659.742188 C 724.308594 661.242188 725.523438 662.457031 727.019531 662.457031 L 747.28125 662.457031 L 747.28125 701.40625 L 727.019531 701.40625 C 725.523438 701.40625 724.308594 702.621094 724.308594 704.117188 C 724.308594 705.617188 725.523438 706.832031 727.019531 706.832031 L 747.28125 706.832031 L 747.28125 745.753906 L 708.355469 745.753906 L 708.355469 725.492188 C 708.355469 723.996094 707.140625 722.777344 705.640625 722.777344 C 704.144531 722.777344 702.929688 723.996094 702.929688 725.492188 L 702.929688 745.753906 L 663.988281 745.753906 L 663.988281 725.492188 C 663.988281 723.996094 662.773438 722.777344 661.277344 722.777344 C 659.78125 722.777344 658.5625 723.996094 658.5625 725.492188 L 658.5625 745.753906 L 619.628906 745.753906 L 619.628906 725.492188 C 619.628906 723.996094 618.414062 722.777344 616.917969 722.777344 C 615.421875 722.777344 614.203125 723.996094 614.203125 725.492188 L 614.203125 745.753906 L 574.136719 745.753906 C 572.640625 745.753906 571.425781 746.96875 571.425781 748.46875 C 571.425781 749.964844 572.640625 751.179688 574.136719 751.179688 L 614.203125 751.179688 L 614.203125 771.441406 C 614.203125 772.9375 615.421875 774.15625 616.917969 774.15625 C 618.414062 774.15625 619.628906 772.9375 619.628906 771.441406 L 619.628906 751.179688 L 658.5625 751.179688 L 658.5625 771.441406 C 658.5625 772.9375 659.78125 774.15625 661.277344 774.15625 C 662.773438 774.15625 663.988281 772.9375 663.988281 771.441406 L 663.988281 751.179688 L 702.929688 751.179688 L 702.929688 771.441406 C 702.929688 772.9375 704.144531 774.15625 705.640625 774.15625 C 707.140625 774.15625 708.355469 772.9375 708.355469 771.441406 L 708.355469 751.179688 L 747.28125 751.179688 L 747.28125 790.109375 L 727.019531 790.109375 C 725.523438 790.109375 724.308594 791.324219 724.308594 792.820312 C 724.308594 794.320312 725.523438 795.535156 727.019531 795.535156 L 747.28125 795.535156 L 747.28125 834.46875 L 727.019531 834.46875 C 725.523438 834.46875 724.308594 835.683594 724.308594 837.179688 C 724.308594 838.679688 725.523438 839.894531 727.019531 839.894531 L 747.28125 839.894531 L 747.28125 878.832031 L 727.019531 878.832031 C 725.523438 878.832031 724.308594 880.046875 724.308594 881.546875 C 724.308594 883.042969 725.523438 884.257812 727.019531 884.257812 L 747.28125 884.257812 L 747.28125 924.324219 C 747.28125 925.824219 748.5 927.039062 749.996094 927.039062 C 751.492188 927.039062 752.707031 925.824219 752.707031 924.324219 L 752.707031 884.257812 L 772.96875 884.257812 C 774.46875 884.257812 775.683594 883.042969 775.683594 881.546875 C 775.683594 880.046875 774.46875 878.832031 772.96875 878.832031 L 752.707031 878.832031 L 752.707031 839.898438 L 772.96875 839.898438 C 774.46875 839.898438 775.683594 838.683594 775.683594 837.1875 C 775.683594 835.6875 774.46875 834.472656 772.96875 834.472656 L 752.707031 834.472656 L 752.707031 795.539062 L 772.96875 795.539062 C 774.46875 795.539062 775.683594 794.324219 775.683594 792.828125 C 775.683594 791.328125 774.46875 790.113281 772.96875 790.113281 L 752.707031 790.113281 L 752.707031 751.179688 L 791.632812 751.179688 L 791.632812 771.441406 C 791.632812 772.9375 792.847656 774.15625 794.34375 774.15625 C 795.84375 774.15625 797.058594 772.9375 797.058594 771.441406 L 797.058594 751.179688 L 836.007812 751.179688 L 836.007812 771.441406 C 836.007812 772.9375 837.222656 774.15625 838.71875 774.15625 C 840.21875 774.15625 841.433594 772.9375 841.433594 771.441406 L 841.433594 751.179688 L 880.359375 751.179688 L 880.359375 771.441406 C 880.359375 772.9375 881.578125 774.15625 883.074219 774.15625 C 884.570312 774.15625 885.785156 772.9375 885.785156 771.441406 L 885.785156 751.179688 L 925.855469 751.179688 C 927.351562 751.179688 928.566406 749.964844 928.566406 748.46875 C 928.566406 746.96875 927.355469 745.753906 925.855469 745.753906 Z M 925.855469 745.753906 " fill-opacity="1" fill-rule="nonzero"/><path fill="#f45854" d="M 749.996094 556.742188 C 644.277344 556.742188 558.269531 642.746094 558.269531 748.46875 C 558.269531 854.179688 644.277344 940.191406 749.996094 940.191406 C 855.710938 940.191406 941.71875 854.179688 941.71875 748.46875 C 941.71875 642.746094 855.710938 556.742188 749.996094 556.742188 Z M 749.996094 934.765625 C 647.265625 934.765625 563.695312 851.195312 563.695312 748.46875 C 563.695312 645.738281 647.265625 562.167969 749.996094 562.167969 C 852.726562 562.167969 936.292969 645.738281 936.292969 748.46875 C 936.292969 851.195312 852.726562 934.765625 749.996094 934.765625 Z M 749.996094 934.765625 " fill-opacity="1" fill-rule="nonzero"/><g clip-path="url(#adf1c30ddf)"><path fill="#f45854" d="M 749.996094 534.132812 C 631.8125 534.132812 535.660156 630.285156 535.660156 748.46875 C 535.660156 866.648438 631.8125 962.804688 749.996094 962.804688 C 868.179688 962.804688 964.332031 866.648438 964.332031 748.46875 C 964.332031 630.285156 868.179688 534.132812 749.996094 534.132812 Z M 749.996094 957.375 C 634.800781 957.375 541.085938 863.660156 541.085938 748.46875 C 541.085938 633.273438 634.800781 539.558594 749.996094 539.558594 C 865.1875 539.558594 958.90625 633.273438 958.90625 748.46875 C 958.90625 863.660156 865.1875 957.375 749.996094 957.375 Z M 749.996094 957.375 " fill-opacity="1" fill-rule="nonzero"/></g></svg>