<svg xmlns="http://www.w3.org/2000/svg" xmlns:xlink="http://www.w3.org/1999/xlink" width="2000" zoomAndPan="magnify" viewBox="0 0 1500 1499.999933" height="2000" preserveAspectRatio="xMidYMid meet" version="1.0"><defs><clipPath id="2e23e14620"><path d="M 638.511719 638.511719 L 861.261719 638.511719 L 861.261719 861.261719 L 638.511719 861.261719 Z M 638.511719 638.511719 " clip-rule="nonzero"/></clipPath><clipPath id="295fa9acf1"><path d="M 750 638.511719 C 688.425781 638.511719 638.511719 688.425781 638.511719 750 C 638.511719 811.570312 688.425781 861.484375 750 861.484375 C 811.570312 861.484375 861.484375 811.570312 861.484375 750 C 861.484375 688.425781 811.570312 638.511719 750 638.511719 Z M 750 638.511719 " clip-rule="nonzero"/></clipPath></defs><g clip-path="url(#2e23e14620)"><g clip-path="url(#295fa9acf1)"><path stroke-linecap="butt" transform="matrix(0.75, 0, 0, 0.75, 638.513594, 638.513589)" fill="none" stroke-linejoin="miter" d="M 148.648554 -0.00249367 C 66.549588 -0.00249367 -0.0025008 66.549595 -0.0025008 148.648561 C -0.0025008 230.742318 66.549588 297.294407 148.648554 297.294407 C 230.742311 297.294407 297.2944 230.742318 297.2944 148.648561 C 297.2944 66.549595 230.742311 -0.00249367 148.648554 -0.00249367 Z M 148.648554 -0.00249367 " stroke="#f45854" stroke-width="96" stroke-opacity="1" stroke-miterlimit="4"/></g></g><path fill="#f75752" d="M 748.78125 620.390625 L 751.246094 620.390625 C 751.503906 621.703125 751.554688 622.976562 751.550781 624.308594 L 751.550781 624.980469 C 751.550781 625.707031 751.546875 626.4375 751.546875 627.164062 L 751.542969 628.6875 C 751.542969 630.019531 751.539062 631.347656 751.539062 632.679688 C 751.535156 634.039062 751.53125 635.398438 751.53125 636.757812 C 751.527344 639.425781 751.523438 642.089844 751.519531 644.757812 L 752.066406 644.757812 L 752.339844 645.304688 L 752.914062 645.324219 C 753.765625 645.355469 754.617188 645.390625 755.46875 645.421875 L 756.375 645.457031 L 757.230469 645.492188 L 758.027344 645.519531 L 758.636719 645.578125 L 758.910156 645.851562 C 758.976562 647.636719 758.976562 647.636719 758.636719 648.316406 C 758.039062 648.414062 758.039062 648.414062 757.261719 648.457031 L 756.414062 648.515625 C 755.820312 648.554688 755.230469 648.589844 754.636719 648.621094 L 753.789062 648.679688 L 753.007812 648.726562 C 752.34375 648.824219 752.34375 648.824219 751.84375 649.15625 C 751.449219 649.710938 751.449219 649.710938 751.417969 650.589844 C 751.414062 650.964844 751.414062 651.339844 751.417969 651.714844 L 751.417969 652.316406 C 751.417969 652.742188 751.421875 653.164062 751.425781 653.585938 C 751.433594 654.226562 751.433594 654.867188 751.429688 655.507812 C 751.433594 657.550781 751.496094 659.476562 752.066406 661.453125 L 752.664062 661.449219 C 753.554688 661.445312 754.445312 661.441406 755.332031 661.4375 L 756.277344 661.429688 L 757.171875 661.429688 L 758 661.421875 L 758.636719 661.453125 L 758.910156 661.726562 C 758.945312 662.226562 758.945312 662.226562 758.945312 662.824219 L 758.945312 663.421875 L 758.910156 663.917969 L 758.636719 664.191406 C 758.179688 664.238281 757.71875 664.269531 757.261719 664.289062 L 756.414062 664.34375 C 755.820312 664.378906 755.230469 664.410156 754.636719 664.4375 L 753.789062 664.496094 L 753.007812 664.539062 C 752.308594 664.691406 752.308594 664.691406 751.84375 665.242188 C 751.347656 666.566406 751.417969 667.835938 751.4375 669.234375 L 751.441406 670.152344 C 751.445312 671.113281 751.457031 672.074219 751.46875 673.039062 C 751.472656 673.691406 751.476562 674.34375 751.476562 674.996094 C 751.488281 676.597656 751.5 678.195312 751.519531 679.796875 C 751.863281 679.976562 752.210938 680.152344 752.554688 680.332031 C 752.75 680.429688 752.941406 680.53125 753.140625 680.632812 C 753.949219 681 754.707031 681.085938 755.589844 681.164062 C 755.976562 681.207031 756.359375 681.246094 756.746094 681.289062 L 757.386719 681.359375 C 762.796875 681.972656 768.832031 682.664062 773.691406 685.269531 C 774.441406 685.460938 774.441406 685.460938 775.0625 685.542969 L 775.0625 686.09375 L 775.625 686.039062 C 776.679688 686.109375 777.390625 686.464844 778.347656 686.914062 L 778.347656 687.460938 L 778.835938 687.621094 C 779.964844 687.992188 781.082031 688.371094 782.179688 688.828125 L 782.179688 689.378906 L 782.699219 689.546875 L 784.050781 689.992188 C 784.640625 690.199219 784.640625 690.199219 785.191406 690.472656 L 785.191406 691.019531 L 786.011719 691.019531 L 786.011719 691.566406 L 787.378906 691.839844 L 787.378906 692.386719 L 787.980469 692.609375 C 788.746094 692.9375 789.429688 693.285156 790.117188 693.757812 L 790.117188 694.304688 L 790.75 694.542969 C 791.484375 694.851562 791.484375 694.851562 792.308594 695.398438 L 792.308594 695.945312 L 793.675781 696.496094 L 793.675781 697.042969 L 794.324219 697.246094 L 795.042969 697.589844 C 795.234375 697.949219 795.417969 698.316406 795.59375 698.683594 C 795.957031 698.871094 796.320312 699.050781 796.6875 699.230469 C 798.25 700.425781 799.53125 701.839844 800.792969 703.339844 C 801.058594 703.648438 801.328125 703.953125 801.59375 704.261719 L 802.46875 705.273438 L 802.886719 705.75 C 803.808594 706.820312 804.660156 707.910156 805.445312 709.085938 L 805.445312 709.632812 L 805.996094 709.632812 C 806.378906 710.148438 806.378906 710.148438 806.832031 710.882812 L 807.347656 711.71875 L 807.910156 712.644531 L 808.507812 713.605469 C 810.011719 716.042969 811.34375 718.542969 812.566406 721.132812 L 812.890625 721.816406 C 815.871094 728.230469 818.417969 735.589844 818.3125 742.757812 L 818.859375 742.757812 L 818.585938 746.863281 L 819.132812 746.863281 L 819.132812 747.6875 L 819.683594 747.6875 L 819.683594 748.234375 L 820.625 748.214844 L 821.597656 748.234375 L 821.871094 748.507812 C 822.660156 748.53125 823.445312 748.539062 824.234375 748.535156 L 824.953125 748.53125 C 825.710938 748.53125 826.46875 748.527344 827.226562 748.523438 C 827.742188 748.523438 828.253906 748.523438 828.765625 748.519531 C 830.027344 748.515625 831.289062 748.511719 832.546875 748.507812 L 832.546875 748.234375 L 835.011719 747.960938 L 835.011719 747.414062 L 835.558594 747.414062 L 835.554688 746.863281 C 835.550781 746.046875 835.546875 745.234375 835.542969 744.417969 L 835.535156 743.554688 L 835.53125 742.734375 L 835.527344 741.972656 L 835.558594 741.390625 L 835.832031 741.117188 C 836.25 741.097656 836.667969 741.09375 837.082031 741.097656 L 837.769531 741.105469 L 838.296875 741.117188 C 838.398438 741.800781 838.496094 742.484375 838.589844 743.167969 L 838.675781 743.746094 C 838.859375 745.125 838.792969 746.3125 838.570312 747.6875 L 839.160156 747.796875 L 840.683594 748.085938 L 841.308594 748.234375 L 841.582031 748.507812 C 842.089844 748.53125 842.597656 748.535156 843.105469 748.535156 L 844.039062 748.53125 L 845.019531 748.523438 L 846.007812 748.519531 C 846.8125 748.515625 847.621094 748.511719 848.425781 748.507812 L 848.425781 748.234375 L 850.617188 747.960938 L 850.726562 747.371094 L 851.015625 745.847656 L 851.164062 745.222656 L 851.4375 744.949219 C 851.5 744.304688 851.550781 743.660156 851.589844 743.015625 L 851.660156 741.945312 L 851.710938 741.117188 C 852.117188 741.109375 852.519531 741.101562 852.925781 741.097656 L 853.609375 741.089844 L 854.175781 741.117188 L 854.449219 741.390625 C 854.46875 741.859375 854.480469 742.324219 854.476562 742.792969 L 854.472656 743.652344 L 854.464844 744.554688 L 854.460938 745.460938 C 854.457031 746.203125 854.453125 746.945312 854.449219 747.6875 L 855.039062 747.796875 L 855.800781 747.941406 L 856.558594 748.085938 L 857.1875 748.234375 L 857.460938 748.507812 C 857.882812 748.53125 858.308594 748.535156 858.730469 748.535156 L 859.554688 748.53125 L 860.460938 748.523438 C 861.097656 748.523438 861.730469 748.519531 862.367188 748.515625 L 863.378906 748.511719 C 868.804688 748.484375 874.214844 748.484375 879.632812 748.78125 L 879.632812 751.246094 L 878.710938 751.25 C 875.851562 751.273438 872.992188 751.296875 870.132812 751.324219 C 868.660156 751.335938 867.191406 751.351562 865.71875 751.359375 C 864.300781 751.371094 862.882812 751.382812 861.464844 751.398438 C 860.921875 751.402344 860.382812 751.40625 859.839844 751.410156 C 859.082031 751.414062 858.324219 751.421875 857.570312 751.429688 L 856.882812 751.433594 C 856.34375 751.441406 855.808594 751.476562 855.269531 751.519531 L 854.722656 752.066406 C 854.628906 752.71875 854.628906 752.71875 854.628906 753.476562 L 854.601562 754.324219 L 854.585938 755.214844 C 854.574219 755.792969 854.558594 756.371094 854.542969 756.949219 L 854.527344 757.730469 L 854.449219 758.363281 L 853.902344 758.910156 C 852.925781 758.960938 852.925781 758.960938 851.984375 758.910156 L 851.710938 758.636719 C 851.691406 758.039062 851.6875 757.4375 851.695312 756.839844 L 851.703125 755.847656 L 851.710938 755.078125 L 851.164062 755.078125 L 851.164062 752.339844 L 850.617188 752.066406 L 850.617188 751.792969 C 848.964844 751.398438 847.296875 751.46875 845.609375 751.46875 C 845.023438 751.464844 844.441406 751.460938 843.855469 751.457031 C 843.480469 751.457031 843.105469 751.457031 842.730469 751.457031 L 841.703125 751.453125 C 840.550781 751.535156 839.601562 751.824219 838.570312 752.339844 C 838.574219 752.519531 838.578125 752.699219 838.578125 752.882812 C 838.589844 753.695312 838.597656 754.503906 838.605469 755.316406 C 838.609375 755.597656 838.613281 755.882812 838.617188 756.171875 L 838.625 756.992188 L 838.632812 757.746094 L 838.570312 758.363281 L 838.023438 758.910156 C 837.289062 758.984375 836.574219 758.933594 835.832031 758.910156 C 835.492188 758.222656 835.527344 757.757812 835.53125 756.992188 L 835.535156 756.171875 L 835.542969 755.316406 L 835.546875 754.453125 C 835.550781 753.75 835.554688 753.042969 835.558594 752.339844 L 835.011719 752.339844 L 835.011719 751.792969 C 834.226562 751.53125 833.730469 751.480469 832.917969 751.480469 L 832.136719 751.472656 L 831.292969 751.472656 L 830.425781 751.46875 C 829.820312 751.46875 829.210938 751.46875 828.605469 751.46875 C 827.679688 751.46875 826.753906 751.460938 825.824219 751.457031 C 825.238281 751.457031 824.648438 751.457031 824.058594 751.457031 L 823.21875 751.449219 C 821.84375 751.453125 820.691406 751.503906 819.410156 752.066406 C 818.855469 752.367188 818.855469 752.367188 818.585938 752.886719 C 818.667969 753.644531 818.667969 753.644531 818.859375 754.53125 C 818.929688 755.855469 818.863281 757.0625 818.585938 758.363281 L 818.339844 759.859375 C 816.839844 768.820312 813.851562 777.386719 809.292969 785.242188 C 809.039062 785.679688 808.792969 786.121094 808.550781 786.5625 L 808.183594 787.105469 L 807.636719 787.105469 L 807.089844 788.75 L 806.542969 788.75 L 806.421875 789.261719 C 806.269531 789.84375 806.269531 789.84375 805.996094 790.390625 L 805.445312 790.390625 L 805.257812 790.972656 C 804.675781 792.25 803.769531 793.167969 802.777344 794.136719 C 802.109375 794.734375 802.109375 794.734375 801.886719 795.59375 L 801.339844 795.59375 L 801.128906 796.085938 C 800.761719 796.746094 800.402344 797.070312 799.820312 797.542969 C 798.90625 798.308594 798.121094 799.125 797.335938 800.023438 C 796.460938 801.019531 795.640625 801.75 794.496094 802.4375 C 793.664062 803.097656 792.886719 803.769531 792.136719 804.523438 C 791.574219 805.082031 791.058594 805.570312 790.390625 805.996094 L 789.570312 805.996094 L 789.570312 806.542969 C 789.410156 806.628906 789.253906 806.714844 789.089844 806.804688 C 788.089844 807.351562 787.101562 807.894531 786.164062 808.542969 L 785.464844 809.007812 L 784.914062 809.007812 L 784.914062 809.554688 C 784.296875 809.863281 783.675781 810.171875 783.054688 810.480469 C 782.449219 810.785156 781.84375 811.097656 781.242188 811.414062 C 772.964844 815.734375 763.394531 818.730469 753.992188 818.742188 C 753.132812 818.828125 753.132812 818.828125 752.296875 819.238281 L 751.519531 819.957031 C 751.28125 820.902344 751.320312 821.828125 751.347656 822.800781 C 751.351562 823.21875 751.351562 823.21875 751.351562 823.644531 C 751.359375 824.539062 751.378906 825.429688 751.398438 826.320312 C 751.40625 826.917969 751.410156 827.511719 751.414062 828.109375 C 751.449219 831.570312 751.449219 831.570312 751.792969 835.011719 L 752.417969 835.058594 C 753.34375 835.128906 754.269531 835.199219 755.195312 835.269531 L 756.179688 835.339844 L 757.113281 835.414062 L 757.976562 835.476562 L 758.636719 835.558594 L 758.910156 835.832031 C 758.929688 836.25 758.933594 836.667969 758.925781 837.082031 L 758.917969 837.769531 L 758.910156 838.296875 C 757.449219 838.601562 756.046875 838.601562 754.5625 838.589844 L 753.835938 838.585938 C 753.246094 838.582031 752.65625 838.578125 752.066406 838.570312 L 752.066406 839.390625 L 751.519531 839.390625 C 751.503906 840.683594 751.496094 841.972656 751.488281 843.261719 C 751.484375 843.703125 751.480469 844.140625 751.476562 844.578125 C 751.46875 845.210938 751.46875 845.84375 751.464844 846.476562 L 751.457031 847.0625 C 751.457031 848.363281 751.648438 849.402344 752.066406 850.617188 L 752.339844 850.890625 C 752.886719 850.945312 753.433594 850.992188 753.980469 851.027344 C 754.53125 851.0625 755.078125 851.105469 755.625 851.164062 L 755.898438 851.4375 C 756.40625 851.5 756.914062 851.550781 757.421875 851.589844 L 758.261719 851.660156 L 758.910156 851.710938 C 758.917969 852.117188 758.921875 852.519531 758.925781 852.925781 L 758.9375 853.609375 L 758.910156 854.175781 L 758.636719 854.449219 C 758.148438 854.472656 757.660156 854.476562 757.171875 854.476562 L 756.277344 854.472656 L 755.335938 854.464844 L 754.386719 854.460938 C 753.613281 854.457031 752.839844 854.453125 752.066406 854.449219 L 752.066406 854.996094 L 751.519531 854.996094 L 751.523438 855.640625 C 751.554688 860.941406 751.507812 866.238281 751.417969 871.539062 L 751.382812 873.566406 C 751.367188 874.523438 751.351562 875.480469 751.332031 876.4375 L 751.316406 877.320312 L 751.300781 878.125 L 751.289062 878.828125 L 751.246094 879.359375 L 750.972656 879.632812 C 750.238281 879.671875 749.511719 879.644531 748.78125 879.632812 C 748.433594 878.59375 748.457031 877.617188 748.449219 876.53125 L 748.441406 875.828125 C 748.433594 875.058594 748.425781 874.289062 748.421875 873.523438 L 748.402344 871.921875 C 748.386719 870.519531 748.375 869.117188 748.363281 867.714844 C 748.347656 866.285156 748.332031 864.851562 748.316406 863.421875 C 748.289062 860.613281 748.261719 857.804688 748.234375 854.996094 C 747.53125 854.644531 746.984375 854.664062 746.195312 854.636719 L 745.300781 854.601562 L 744.367188 854.566406 L 743.425781 854.53125 C 742.65625 854.503906 741.886719 854.476562 741.117188 854.449219 L 741.117188 851.710938 L 742.472656 851.601562 L 744.230469 851.453125 L 745.125 851.382812 L 745.980469 851.308594 L 746.773438 851.246094 C 747.417969 851.199219 747.417969 851.199219 747.960938 850.890625 L 747.960938 850.34375 L 748.507812 850.34375 L 748.507812 839.390625 L 747.960938 839.390625 L 747.414062 838.570312 C 746.8125 838.460938 746.8125 838.460938 746.121094 838.5 L 745.347656 838.511719 L 744.539062 838.535156 C 744.011719 838.546875 743.484375 838.558594 742.957031 838.570312 L 742.246094 838.589844 C 741.664062 838.570312 741.664062 838.570312 741.117188 838.296875 C 740.910156 837.835938 740.910156 837.835938 740.84375 837.203125 C 741.015625 836.652344 741.195312 836.105469 741.390625 835.558594 L 742.410156 835.507812 L 743.75 835.441406 L 744.421875 835.40625 C 745.621094 835.34375 746.777344 835.238281 747.960938 835.011719 L 747.960938 834.464844 L 748.507812 834.464844 L 748.507812 819.957031 L 747.136719 819.410156 L 747.136719 818.859375 L 746.410156 818.847656 C 735.0625 818.433594 723.625 814.855469 713.953125 808.90625 C 712.769531 808.144531 711.613281 807.347656 710.457031 806.542969 L 709.976562 806.238281 C 709.582031 805.988281 709.195312 805.71875 708.8125 805.445312 L 708.8125 804.898438 L 708.351562 804.839844 C 707.480469 804.546875 706.996094 804.027344 706.332031 803.394531 C 705.363281 802.449219 705.363281 802.449219 704.160156 801.886719 L 703.886719 801.066406 C 703.484375 800.71875 703.484375 800.71875 702.996094 800.417969 C 701.433594 799.347656 700.078125 797.941406 698.957031 796.414062 L 698.957031 795.867188 L 698.410156 795.867188 L 698.410156 795.320312 L 697.863281 795.320312 C 697.265625 794.796875 696.816406 794.308594 696.414062 793.621094 C 695.945312 792.851562 695.425781 792.164062 694.875 791.457031 C 691.800781 787.503906 689.273438 783.167969 687.1875 778.621094 L 686.914062 778.027344 C 683.84375 771.285156 681.789062 763.941406 681.363281 756.527344 C 681.261719 754.980469 680.980469 753.761719 680.34375 752.339844 C 679.855469 751.769531 679.855469 751.769531 679.28125 751.625 C 678.308594 751.449219 677.328125 751.480469 676.34375 751.480469 L 675.648438 751.480469 C 675.164062 751.480469 674.679688 751.480469 674.191406 751.484375 C 673.457031 751.484375 672.71875 751.484375 671.984375 751.480469 C 671.507812 751.480469 671.035156 751.480469 670.5625 751.480469 L 669.902344 751.480469 C 667.714844 751.472656 667.714844 751.472656 665.5625 751.792969 L 665.289062 752.339844 L 664.464844 752.339844 L 664.46875 752.855469 C 664.476562 753.625 664.480469 754.394531 664.484375 755.164062 L 664.488281 755.972656 L 664.492188 756.75 L 664.496094 757.46875 C 664.464844 758.089844 664.464844 758.089844 664.191406 758.910156 C 663.785156 758.917969 663.382812 758.921875 662.976562 758.925781 L 662.292969 758.9375 L 661.726562 758.910156 L 661.453125 758.636719 C 661.433594 758.148438 661.421875 757.660156 661.429688 757.171875 L 661.429688 756.277344 L 661.4375 755.332031 L 661.441406 754.386719 C 661.445312 753.613281 661.449219 752.839844 661.453125 752.066406 L 660.789062 751.945312 L 660.085938 751.792969 L 659.8125 751.519531 C 659.277344 751.492188 658.742188 751.484375 658.203125 751.480469 L 657.195312 751.480469 L 656.132812 751.484375 L 655.097656 751.480469 C 652.238281 751.425781 652.238281 751.425781 649.410156 751.792969 L 649.136719 752.339844 L 648.589844 752.339844 L 648.316406 758.910156 L 645.851562 758.910156 L 645.578125 758.636719 C 645.554688 758.167969 645.546875 757.699219 645.550781 757.230469 L 645.554688 756.375 L 645.558594 755.472656 L 645.5625 754.5625 C 645.566406 753.824219 645.570312 753.082031 645.578125 752.339844 C 644.050781 751.722656 642.824219 751.476562 641.183594 751.460938 L 640.503906 751.453125 C 639.761719 751.445312 639.019531 751.4375 638.277344 751.433594 L 636.734375 751.414062 C 635.378906 751.398438 634.027344 751.386719 632.671875 751.371094 C 631.289062 751.359375 629.90625 751.34375 628.527344 751.328125 C 625.816406 751.300781 623.105469 751.269531 620.390625 751.246094 L 620.390625 748.78125 L 643.113281 748.507812 L 643.113281 748.234375 L 645.03125 747.960938 L 645.03125 747.414062 L 645.578125 747.414062 L 645.574219 746.863281 C 645.566406 746.046875 645.5625 745.234375 645.558594 744.417969 L 645.554688 743.554688 L 645.550781 742.734375 L 645.546875 741.972656 L 645.578125 741.390625 L 645.851562 741.117188 C 646.488281 741.105469 647.128906 741.105469 647.765625 741.117188 C 648.105469 741.703125 648.308594 742.148438 648.378906 742.828125 L 648.367188 743.460938 L 648.359375 744.09375 C 648.316406 744.675781 648.316406 744.675781 648.039062 745.496094 L 648.589844 745.496094 L 649.136719 747.960938 C 650.464844 748.386719 651.566406 748.574219 652.976562 748.5625 L 654.042969 748.554688 L 655.140625 748.542969 C 655.515625 748.539062 655.890625 748.535156 656.261719 748.535156 C 657.171875 748.527344 658.082031 748.519531 658.992188 748.507812 L 658.992188 748.234375 L 661.453125 747.960938 L 661.449219 747.359375 C 661.445312 746.472656 661.441406 745.582031 661.4375 744.691406 L 661.429688 743.75 L 661.429688 742.855469 L 661.421875 742.023438 L 661.453125 741.390625 L 661.726562 741.117188 C 662.144531 741.097656 662.5625 741.09375 662.976562 741.097656 L 663.664062 741.105469 L 664.191406 741.117188 C 664.433594 742.027344 664.46875 742.851562 664.449219 743.785156 C 664.441406 745.089844 664.433594 746.492188 665.011719 747.6875 C 665.550781 748.175781 665.550781 748.175781 666.382812 748.507812 C 667.324219 748.621094 668.261719 748.601562 669.210938 748.585938 L 670.035156 748.582031 C 670.898438 748.578125 671.761719 748.570312 672.628906 748.558594 C 673.214844 748.554688 673.800781 748.550781 674.390625 748.546875 C 675.824219 748.539062 677.261719 748.523438 678.699219 748.507812 L 678.699219 748.234375 L 680.890625 747.6875 L 680.617188 746.863281 C 680.691406 746.289062 680.691406 746.289062 680.839844 745.597656 C 681.089844 744.347656 681.238281 743.121094 681.351562 741.851562 C 682.035156 735.324219 683.917969 728.472656 686.640625 722.5 L 686.890625 721.945312 C 688.808594 717.71875 688.808594 717.71875 689.871094 716.160156 C 690.273438 715.542969 690.628906 714.898438 690.996094 714.253906 C 693.488281 709.96875 696.621094 706.078125 700.054688 702.515625 L 700.539062 702.015625 C 702.441406 700.050781 704.355469 698.167969 706.507812 696.472656 C 707.140625 695.972656 707.738281 695.445312 708.335938 694.902344 C 709.0625 694.253906 709.859375 693.703125 710.722656 693.25 C 711.445312 692.839844 712.117188 692.375 712.800781 691.910156 C 715.804688 689.898438 718.851562 688.296875 722.164062 686.875 C 722.9375 686.542969 723.699219 686.179688 724.445312 685.792969 C 725.414062 685.300781 726.382812 684.960938 727.429688 684.65625 L 728.371094 684.375 L 729.070312 684.175781 L 729.070312 683.902344 L 729.871094 683.734375 C 730.855469 683.527344 731.839844 683.320312 732.824219 683.113281 C 733.25 683.023438 733.675781 682.933594 734.101562 682.847656 C 734.714844 682.71875 735.328125 682.589844 735.941406 682.457031 L 736.511719 682.339844 C 737.390625 682.152344 738.25 681.945312 739.109375 681.6875 C 739.917969 681.464844 740.585938 681.363281 741.417969 681.34375 L 742.167969 681.320312 L 743.699219 681.285156 C 744.960938 681.242188 745.988281 681.199219 747.136719 680.617188 L 747.960938 680.34375 L 747.960938 679.796875 L 748.507812 679.796875 L 748.507812 665.289062 L 747.960938 665.289062 L 747.960938 664.738281 L 741.117188 664.191406 L 741.117188 661.726562 L 741.390625 661.453125 C 742.1875 661.394531 742.984375 661.351562 743.785156 661.316406 C 744.230469 661.300781 744.671875 661.277344 745.117188 661.257812 L 745.714844 661.234375 C 746.386719 661.175781 747.027344 661.050781 747.6875 660.90625 C 748.230469 658.316406 748.300781 655.804688 748.269531 653.171875 C 748.265625 652.78125 748.261719 652.386719 748.261719 651.992188 C 748.253906 651.039062 748.246094 650.089844 748.234375 649.136719 C 747.539062 648.789062 746.96875 648.777344 746.195312 648.714844 L 745.300781 648.644531 L 744.367188 648.570312 L 743.425781 648.496094 C 742.65625 648.433594 741.886719 648.375 741.117188 648.316406 C 741.109375 647.910156 741.101562 647.503906 741.097656 647.101562 L 741.089844 646.417969 L 741.117188 645.851562 L 741.390625 645.578125 C 741.855469 645.535156 742.324219 645.507812 742.792969 645.492188 L 743.652344 645.457031 L 744.554688 645.421875 L 745.460938 645.386719 C 746.203125 645.359375 746.945312 645.332031 747.6875 645.304688 L 747.960938 644.480469 L 748.507812 644.480469 L 748.503906 643.59375 C 748.5 640.828125 748.496094 638.066406 748.492188 635.300781 C 748.492188 633.882812 748.488281 632.460938 748.488281 631.039062 C 748.484375 629.667969 748.480469 628.296875 748.480469 626.929688 C 748.480469 626.40625 748.480469 625.882812 748.476562 625.359375 C 748.476562 624.625 748.476562 623.894531 748.476562 623.164062 L 748.472656 622.503906 C 748.476562 621.003906 748.476562 621.003906 748.78125 620.390625 M 730.441406 692.386719 C 730.253906 692.453125 730.066406 692.515625 729.871094 692.578125 C 725.6875 693.996094 721.679688 695.953125 717.847656 698.136719 L 717.847656 698.683594 L 716.203125 699.230469 L 716.203125 699.78125 L 715.605469 700.003906 C 714.835938 700.328125 714.15625 700.675781 713.46875 701.148438 L 713.46875 701.695312 L 712.894531 701.878906 C 711.898438 702.335938 711.136719 702.984375 710.320312 703.699219 L 709.859375 704.089844 C 706.871094 706.660156 704.015625 709.726562 701.695312 712.917969 L 701.695312 713.46875 L 701.148438 713.46875 C 700.714844 714.054688 700.714844 714.054688 700.277344 714.800781 C 699.648438 715.820312 699.003906 716.800781 698.292969 717.761719 C 693.6875 724.300781 690.65625 733.222656 689.652344 741.117188 C 689.519531 743.125 689.5625 745.128906 689.652344 747.136719 L 690.199219 747.136719 L 690.234375 747.652344 L 690.472656 748.234375 C 691.878906 748.871094 693.203125 748.855469 694.714844 748.84375 L 695.492188 748.84375 C 696.335938 748.84375 697.179688 748.839844 698.023438 748.835938 L 699.785156 748.832031 C 701.328125 748.828125 702.867188 748.824219 704.410156 748.820312 C 705.984375 748.8125 707.558594 748.808594 709.132812 748.808594 C 712.21875 748.800781 715.308594 748.792969 718.394531 748.78125 L 718.394531 751.246094 L 717.421875 751.242188 C 714.40625 751.238281 711.390625 751.234375 708.371094 751.230469 C 706.820312 751.230469 705.269531 751.226562 703.71875 751.222656 C 702.222656 751.222656 700.726562 751.21875 699.230469 751.21875 C 698.65625 751.21875 698.085938 751.21875 697.515625 751.214844 C 696.714844 751.214844 695.917969 751.214844 695.117188 751.214844 L 694.398438 751.210938 C 693.476562 751.210938 692.722656 751.226562 691.839844 751.519531 L 691.839844 752.066406 C 691.460938 752.074219 691.460938 752.074219 691.070312 752.082031 L 690.199219 752.339844 C 689.664062 753.300781 689.378906 753.976562 689.378906 755.078125 L 689.925781 755.078125 L 689.621094 755.871094 C 689.25 757.1875 689.535156 758.289062 689.839844 759.59375 C 689.949219 760.085938 690.054688 760.578125 690.164062 761.070312 L 690.328125 761.796875 C 690.515625 762.675781 690.664062 763.566406 690.8125 764.453125 C 691.191406 766.328125 691.757812 768.128906 692.355469 769.945312 L 692.625 770.777344 C 693.230469 772.5625 693.980469 774.210938 694.851562 775.882812 C 695.027344 776.246094 695.203125 776.609375 695.378906 776.972656 C 696.289062 778.859375 697.253906 780.683594 698.375 782.453125 L 698.691406 782.953125 C 698.949219 783.34375 699.226562 783.722656 699.507812 784.09375 L 700.054688 784.09375 L 700.257812 784.683594 C 701.667969 787.894531 704.722656 790.699219 707.171875 793.128906 L 707.714844 793.683594 C 709.40625 795.425781 709.40625 795.425781 711.277344 796.960938 L 711.824219 796.960938 L 711.824219 797.507812 C 712.230469 797.878906 712.230469 797.878906 712.75 798.226562 L 713.269531 798.597656 L 713.742188 798.878906 L 714.289062 798.878906 L 714.289062 799.425781 L 715.109375 799.425781 L 715.109375 799.972656 C 715.511719 800.308594 715.511719 800.308594 716.039062 800.625 C 716.234375 800.746094 716.425781 800.867188 716.625 800.992188 L 717.25 801.375 L 717.859375 801.761719 C 718.660156 802.265625 718.660156 802.265625 719.488281 802.710938 L 720.3125 802.710938 L 720.3125 803.257812 C 728.46875 807.53125 737.585938 810.445312 746.863281 810.375 L 746.863281 809.828125 L 747.960938 809.554688 L 747.960938 809.007812 L 748.507812 809.007812 L 748.78125 781.632812 L 751.246094 781.632812 L 751.246094 809.28125 L 752.886719 809.554688 L 753.160156 810.375 C 760.34375 810.652344 767.746094 808.691406 774.238281 805.722656 L 774.851562 805.445312 C 778.832031 803.65625 782.441406 801.515625 786.011719 799.015625 L 786.515625 798.664062 C 786.90625 798.382812 787.28125 798.085938 787.652344 797.78125 L 787.652344 797.234375 L 788.207031 797.078125 C 789.371094 796.519531 790.1875 795.679688 791.109375 794.789062 L 791.664062 794.261719 C 792.15625 793.796875 792.644531 793.328125 793.128906 792.855469 L 793.597656 792.421875 L 793.949219 792.035156 L 793.949219 791.484375 L 794.421875 791.304688 C 795.238281 790.824219 795.6875 790.226562 796.277344 789.484375 L 796.902344 788.699219 L 797.507812 787.925781 L 798.0625 787.242188 C 802.667969 781.410156 805.933594 774.722656 808.183594 767.667969 L 808.445312 766.847656 C 808.660156 766.121094 808.835938 765.394531 809.007812 764.660156 L 809.140625 764.097656 C 809.78125 761.378906 810.207031 758.691406 810.359375 755.898438 L 810.40625 755.121094 L 810.433594 754.394531 L 810.460938 753.75 C 810.414062 753.128906 810.414062 753.128906 809.996094 752.585938 L 809.554688 752.066406 L 809.007812 751.246094 C 808.496094 751.121094 808.496094 751.121094 807.902344 751.144531 L 807.199219 751.140625 L 806.429688 751.152344 L 805.621094 751.152344 C 804.734375 751.152344 803.851562 751.15625 802.964844 751.164062 C 802.351562 751.167969 801.738281 751.167969 801.125 751.167969 C 799.507812 751.171875 797.894531 751.179688 796.277344 751.1875 C 794.628906 751.195312 792.984375 751.199219 791.335938 751.203125 C 788.101562 751.214844 784.867188 751.226562 781.632812 751.246094 L 781.632812 748.78125 L 807.636719 748.78125 L 807.636719 748.507812 L 808.542969 748.351562 C 808.878906 748.222656 809.210938 748.09375 809.554688 747.960938 C 810.152344 747.074219 810.320312 746.445312 810.460938 745.398438 C 810.835938 737.292969 807.300781 728.464844 803.707031 721.375 C 802.828125 719.675781 801.886719 718.050781 800.792969 716.476562 L 800.183594 715.582031 C 798.632812 713.335938 796.921875 711.269531 795.121094 709.222656 C 794.625 708.644531 794.152344 708.042969 793.675781 707.445312 C 792.660156 706.375 791.585938 705.308594 790.390625 704.433594 L 789.84375 704.433594 L 789.84375 703.886719 C 789.339844 703.449219 788.820312 703.035156 788.285156 702.636719 L 787.796875 702.269531 C 784.769531 700 781.683594 698 778.347656 696.222656 L 777.796875 695.925781 C 775.132812 694.519531 772.433594 693.363281 769.585938 692.386719 L 769.050781 692.203125 C 764.554688 690.664062 759.894531 689.628906 755.128906 689.566406 L 754.515625 689.542969 C 753.847656 689.519531 753.847656 689.519531 752.886719 689.652344 C 752.136719 690.226562 751.769531 690.777344 751.246094 691.566406 C 751.160156 692.09375 751.160156 692.09375 751.167969 692.675781 L 751.160156 693.355469 L 751.15625 694.097656 L 751.148438 694.882812 C 751.140625 695.742188 751.136719 696.597656 751.132812 697.457031 C 751.125 698.050781 751.121094 698.644531 751.113281 699.238281 C 751.101562 700.804688 751.089844 702.367188 751.082031 703.933594 C 751.070312 705.527344 751.054688 707.125 751.042969 708.722656 C 751.015625 711.855469 750.992188 714.988281 750.972656 718.121094 L 748.78125 718.394531 L 748.777344 717.351562 C 748.761719 714.109375 748.742188 710.863281 748.714844 707.621094 C 748.703125 705.957031 748.695312 704.289062 748.6875 702.621094 C 748.679688 701.011719 748.667969 699.40625 748.652344 697.796875 C 748.648438 697.183594 748.644531 696.566406 748.644531 695.953125 C 748.640625 695.09375 748.632812 694.234375 748.625 693.378906 L 748.625 692.601562 L 748.617188 691.894531 L 748.613281 691.277344 C 748.542969 690.71875 748.542969 690.71875 748.140625 690.28125 C 747.664062 689.867188 747.664062 689.867188 746.863281 689.652344 C 741.289062 689.199219 735.679688 690.601562 730.441406 692.386719 M 738.925781 597.671875 C 739.203125 599.042969 739.238281 600.351562 739.234375 601.742188 L 739.238281 602.449219 C 739.238281 602.9375 739.238281 603.429688 739.234375 603.921875 C 739.234375 604.660156 739.234375 605.398438 739.238281 606.136719 C 739.242188 612.117188 739.242188 612.117188 738.925781 613.820312 C 738.214844 614.179688 737.589844 614.210938 736.796875 614.304688 L 735.785156 614.425781 L 735.242188 614.492188 C 724.972656 615.730469 715.054688 617.851562 705.253906 621.214844 L 704.570312 621.445312 C 697.621094 623.855469 690.882812 626.898438 684.460938 630.488281 C 683.996094 630.742188 683.523438 630.976562 683.046875 631.207031 C 681.90625 631.800781 680.863281 632.539062 679.796875 633.257812 C 679.007812 633.773438 679.007812 633.773438 678.425781 634.078125 L 677.605469 634.078125 L 677.605469 634.628906 L 676.785156 635.089844 C 675.820312 635.636719 674.890625 636.226562 673.964844 636.828125 C 673.5 637.089844 673.5 637.089844 672.953125 637.089844 L 672.953125 637.636719 C 672.5 637.960938 672.5 637.960938 671.910156 638.304688 C 671.304688 638.65625 670.8125 638.953125 670.332031 639.460938 L 669.941406 639.828125 L 669.121094 639.828125 L 669.121094 640.375 C 668.332031 640.957031 668.332031 640.957031 667.476562 641.472656 L 666.929688 641.472656 L 666.929688 642.019531 C 666.117188 642.613281 665.421875 643.070312 664.464844 643.386719 L 664.464844 643.933594 C 663.816406 644.515625 663.816406 644.515625 663.097656 645.03125 L 662.550781 645.03125 L 662.550781 645.578125 C 662.101562 645.972656 661.636719 646.355469 661.164062 646.722656 C 660.070312 647.597656 659.054688 648.488281 658.082031 649.496094 C 657.402344 650.179688 656.667969 650.796875 655.9375 651.429688 C 655.515625 651.800781 655.113281 652.195312 654.714844 652.59375 C 654.0625 653.242188 654.0625 653.242188 653.277344 653.875 C 652.429688 654.570312 651.738281 655.359375 651.027344 656.191406 C 650.464844 656.847656 649.886719 657.492188 649.308594 658.136719 L 648.675781 658.839844 C 648.265625 659.289062 647.855469 659.738281 647.441406 660.1875 C 645.835938 661.9375 644.371094 663.78125 642.917969 665.660156 C 642.421875 666.292969 641.910156 666.917969 641.402344 667.546875 C 639.332031 670.128906 637.542969 672.925781 635.722656 675.691406 L 635.226562 676.4375 C 631.601562 682.03125 628.324219 687.949219 625.59375 694.03125 L 625.339844 694.585938 C 619.796875 706.832031 616.535156 719.90625 614.644531 733.175781 L 613.820312 738.925781 L 597.671875 738.925781 C 597.316406 737.867188 597.460938 736.949219 597.570312 735.859375 L 597.636719 735.179688 C 597.710938 734.449219 597.785156 733.71875 597.859375 732.988281 L 597.9375 732.234375 C 598.519531 726.554688 599.394531 721.015625 600.792969 715.476562 C 600.941406 714.886719 601.085938 714.296875 601.230469 713.707031 C 601.492188 712.621094 601.765625 711.535156 602.050781 710.457031 L 602.210938 709.847656 C 603.347656 705.523438 604.84375 701.335938 606.371094 697.140625 C 606.636719 696.40625 606.898438 695.671875 607.15625 694.9375 C 608.253906 691.886719 609.628906 688.96875 611 686.039062 C 611.3125 685.371094 611.621094 684.699219 611.925781 684.027344 C 614.960938 677.371094 618.738281 671.054688 622.855469 665.011719 C 623.753906 663.683594 624.597656 662.328125 625.433594 660.960938 L 625.867188 660.359375 L 626.414062 660.359375 L 626.6875 658.992188 L 627.234375 658.992188 L 627.40625 658.425781 C 627.816406 657.554688 628.296875 656.976562 628.9375 656.265625 C 629.710938 655.378906 630.421875 654.433594 631.140625 653.5 L 631.617188 652.96875 L 632.164062 652.96875 L 632.351562 652.371094 C 632.789062 651.433594 633.332031 650.945312 634.078125 650.230469 C 634.382812 649.894531 634.679688 649.554688 634.972656 649.210938 C 637.601562 646.191406 640.40625 643.332031 643.234375 640.496094 L 644 639.726562 C 645.242188 638.484375 646.5 637.28125 647.832031 636.140625 C 648.269531 635.757812 648.699219 635.371094 649.121094 634.972656 C 650.542969 633.636719 651.988281 632.363281 653.53125 631.171875 L 653.988281 630.816406 C 654.652344 630.3125 655.179688 629.964844 655.980469 629.699219 L 655.980469 629.152344 C 656.59375 628.664062 657.21875 628.195312 657.863281 627.75 L 658.402344 627.359375 C 658.863281 627.035156 659.335938 626.722656 659.8125 626.414062 L 660.359375 626.414062 L 660.359375 625.867188 C 660.851562 625.460938 660.851562 625.460938 661.539062 624.996094 L 662.296875 624.476562 C 663.3125 623.808594 664.335938 623.160156 665.367188 622.511719 C 666.074219 622.058594 666.757812 621.582031 667.441406 621.09375 C 669.992188 619.292969 672.675781 617.769531 675.414062 616.285156 L 677.042969 615.394531 L 678.699219 614.488281 L 679.53125 614.03125 C 681.113281 613.171875 682.703125 612.375 684.347656 611.652344 C 684.9375 611.382812 685.519531 611.097656 686.09375 610.792969 C 687.183594 610.238281 688.316406 609.847656 689.46875 609.445312 C 690.125 609.195312 690.726562 608.914062 691.34375 608.585938 C 692.394531 608.035156 693.417969 607.773438 694.578125 607.527344 L 694.578125 606.976562 C 694.882812 606.890625 695.1875 606.804688 695.5 606.71875 C 697.472656 606.152344 699.402344 605.578125 701.296875 604.78125 C 702.675781 604.234375 704.105469 603.835938 705.527344 603.417969 L 706.367188 603.175781 C 707.9375 602.726562 709.523438 602.324219 711.105469 601.914062 L 712.085938 601.660156 C 717.253906 600.316406 717.253906 600.316406 718.667969 600.410156 L 718.667969 599.859375 C 719.5625 599.601562 720.410156 599.535156 721.335938 599.484375 C 722.699219 599.390625 724 599.199219 725.335938 598.929688 C 727.515625 598.507812 729.699219 598.203125 731.902344 597.949219 C 732.519531 597.875 733.132812 597.796875 733.746094 597.722656 L 734.941406 597.582031 L 736.007812 597.453125 C 737.027344 597.394531 737.925781 597.492188 738.925781 597.671875 M 902.355469 761.101562 C 902.425781 763.550781 902.222656 765.957031 901.945312 768.386719 L 901.875 769.007812 C 899.550781 789.082031 892.664062 808.34375 882.917969 825.976562 L 882.371094 825.976562 L 882.304688 826.542969 C 882.039062 827.574219 881.523438 828.378906 880.949219 829.261719 L 880.589844 829.832031 C 880.183594 830.464844 879.773438 831.097656 879.359375 831.726562 L 878.894531 832.441406 C 877.203125 835.027344 875.496094 837.59375 873.609375 840.046875 C 873.058594 840.765625 872.53125 841.496094 872.003906 842.230469 C 871.109375 843.460938 870.195312 844.675781 869.265625 845.875 L 868.871094 846.394531 C 868.546875 846.808594 868.207031 847.207031 867.863281 847.605469 L 867.316406 847.605469 L 867.125 848.191406 C 866.6875 849.148438 866.113281 849.789062 865.398438 850.566406 L 864.664062 851.375 L 864.03125 851.984375 L 863.480469 851.984375 L 863.253906 852.472656 C 862.015625 854.8125 859.621094 856.71875 857.765625 858.574219 C 857.257812 859.082031 856.753906 859.589844 856.25 860.101562 C 854.5625 861.792969 852.867188 863.40625 850.984375 864.886719 C 850.152344 865.550781 849.363281 866.261719 848.578125 866.980469 L 848.152344 867.316406 L 847.605469 867.316406 L 847.332031 868.136719 C 846.800781 868.597656 846.800781 868.597656 846.234375 868.957031 L 845.6875 868.957031 L 845.6875 869.503906 L 844.867188 869.777344 C 844.496094 870.136719 844.132812 870.503906 843.773438 870.875 C 843.449219 871.175781 843.125 871.46875 842.796875 871.761719 C 842.636719 871.90625 842.480469 872.046875 842.316406 872.195312 L 841.855469 872.515625 L 841.035156 872.515625 L 840.761719 873.335938 L 839.117188 874.160156 C 838.808594 874.40625 838.507812 874.664062 838.210938 874.929688 C 837.140625 875.878906 836 876.753906 834.738281 877.445312 L 833.917969 877.445312 L 833.917969 877.992188 C 833.480469 878.332031 833.480469 878.332031 832.867188 878.714844 L 832.1875 879.140625 L 831.46875 879.582031 L 830.78125 880.015625 C 829.5 880.8125 828.199219 881.574219 826.875 882.300781 C 826.21875 882.667969 825.566406 883.039062 824.917969 883.417969 C 822.125 885.046875 819.324219 886.554688 816.378906 887.878906 C 815.550781 888.253906 814.734375 888.652344 813.917969 889.042969 C 803.855469 893.75 793.277344 897.191406 782.453125 899.617188 L 781.597656 899.8125 C 777.890625 900.640625 774.152344 901.230469 770.390625 901.753906 L 769.746094 901.847656 C 766.847656 902.261719 764.027344 902.433594 761.101562 902.355469 C 760.8125 900.9375 760.785156 899.582031 760.789062 898.140625 L 760.789062 897.398438 C 760.789062 896.878906 760.789062 896.359375 760.789062 895.839844 C 760.792969 895.054688 760.789062 894.269531 760.789062 893.484375 C 760.785156 887.964844 760.785156 887.964844 761.101562 886.203125 L 761.375 885.929688 C 762.054688 885.824219 762.730469 885.734375 763.414062 885.652344 L 764.722656 885.488281 L 765.417969 885.402344 C 775.046875 884.582031 775.046875 884.582031 784.136719 881.796875 C 784.707031 881.519531 785.109375 881.476562 785.738281 881.445312 C 787.121094 881.324219 788.347656 880.902344 789.652344 880.4375 C 790.390625 880.179688 790.390625 880.179688 790.96875 880.042969 C 791.496094 879.925781 791.496094 879.925781 791.980469 879.648438 C 792.632812 879.335938 793.25 879.164062 793.953125 878.988281 C 795.613281 878.546875 797.207031 877.984375 798.808594 877.375 L 799.679688 877.046875 C 801.753906 876.253906 803.75 875.375 805.742188 874.40625 C 806.992188 873.816406 808.265625 873.273438 809.53125 872.722656 C 810.59375 872.257812 811.582031 871.761719 812.566406 871.148438 C 813.015625 870.898438 813.464844 870.65625 813.917969 870.410156 C 814.8125 869.929688 815.703125 869.429688 816.585938 868.921875 L 817.101562 868.621094 C 817.4375 868.425781 817.769531 868.230469 818.101562 868.035156 C 818.890625 867.574219 819.597656 867.195312 820.503906 867.039062 L 820.503906 866.492188 L 821.253906 866.082031 C 823.03125 865.09375 824.6875 864.09375 826.265625 862.804688 C 826.753906 862.421875 827.230469 862.117188 827.773438 861.824219 C 828.898438 861.1875 829.886719 860.4375 830.90625 859.648438 C 831.238281 859.402344 831.566406 859.160156 831.898438 858.914062 C 834.359375 857.0625 836.78125 855.183594 839.050781 853.097656 C 839.640625 852.554688 840.242188 852.027344 840.847656 851.503906 C 841.429688 851 841.992188 850.476562 842.539062 849.929688 C 843.117188 849.355469 843.703125 848.820312 844.320312 848.289062 C 845.175781 847.546875 845.996094 846.773438 846.785156 845.960938 L 847.484375 845.277344 C 848.15625 844.613281 848.15625 844.613281 848.699219 843.910156 C 849.292969 843.167969 849.945312 842.527344 850.617188 841.855469 C 852.113281 840.265625 853.539062 838.644531 854.855469 836.902344 C 855.269531 836.382812 855.269531 836.382812 855.953125 835.714844 C 856.769531 834.878906 857.382812 833.964844 858.039062 833.003906 C 858.539062 832.296875 859.066406 831.628906 859.617188 830.957031 C 861.894531 828.25 861.894531 828.25 863.480469 825.15625 L 864.03125 825.15625 L 864.226562 824.597656 C 864.664062 823.589844 865.230469 822.710938 865.824219 821.785156 C 873.773438 809.242188 879.527344 795.285156 882.738281 780.792969 C 882.910156 780.03125 883.085938 779.273438 883.265625 778.515625 C 884.242188 774.234375 884.8125 769.898438 885.390625 765.546875 L 885.492188 764.78125 C 885.558594 764.300781 885.621094 763.816406 885.683594 763.335938 C 885.898438 761.707031 885.898438 761.707031 886.203125 761.101562 C 891.347656 760.195312 897.175781 760.597656 902.355469 761.101562 M 602.882812 760.789062 L 603.648438 760.789062 C 604.183594 760.789062 604.714844 760.789062 605.246094 760.789062 C 606.054688 760.792969 606.863281 760.789062 607.671875 760.789062 C 608.191406 760.789062 608.710938 760.789062 609.230469 760.789062 L 609.957031 760.789062 C 611.273438 760.792969 612.527344 760.855469 613.820312 761.101562 L 614.097656 761.375 C 614.152344 761.746094 614.191406 762.125 614.222656 762.5 L 614.285156 763.207031 L 614.351562 763.957031 C 614.511719 765.683594 614.703125 767.367188 615.089844 769.0625 C 615.230469 769.785156 615.207031 770.492188 615.191406 771.226562 L 615.464844 772.050781 C 615.5 772.429688 615.527344 772.8125 615.550781 773.195312 C 615.683594 774.679688 616.042969 776.082031 616.421875 777.519531 C 616.703125 778.601562 616.929688 779.667969 617.089844 780.777344 C 617.441406 783.027344 618.101562 785.199219 618.75 787.378906 L 619 788.226562 C 620.015625 791.628906 621.042969 795.011719 622.359375 798.3125 C 622.617188 798.96875 622.875 799.625 623.132812 800.28125 C 623.324219 800.773438 623.519531 801.261719 623.710938 801.75 L 623.980469 802.4375 C 624.464844 803.648438 624.992188 804.820312 625.585938 805.984375 C 625.886719 806.582031 626.167969 807.183594 626.449219 807.792969 C 628.058594 811.273438 629.855469 814.609375 631.78125 817.925781 C 632.09375 818.464844 632.402344 819.007812 632.710938 819.550781 C 635.683594 824.765625 639.183594 829.65625 642.914062 834.351562 L 643.386719 835.011719 L 643.386719 835.558594 L 643.933594 835.558594 C 644.320312 835.992188 644.6875 836.4375 645.046875 836.894531 C 646.265625 838.417969 647.546875 839.867188 648.863281 841.308594 C 649.496094 842.015625 650.132812 842.726562 650.765625 843.4375 C 651.148438 843.851562 651.539062 844.25 651.945312 844.636719 L 652.421875 845.140625 L 652.421875 845.6875 L 652.917969 845.910156 C 653.515625 846.234375 653.902344 846.535156 654.335938 847.058594 L 654.335938 847.605469 L 654.785156 847.792969 C 655.636719 848.265625 656.289062 848.867188 657.007812 849.519531 L 657.425781 849.894531 C 657.777344 850.214844 658.113281 850.550781 658.445312 850.890625 L 658.445312 851.4375 L 658.941406 851.675781 C 659.539062 851.984375 659.539062 851.984375 660.359375 852.53125 L 660.359375 853.078125 L 660.800781 853.265625 C 661.667969 853.746094 662.386719 854.371094 663.132812 855.011719 C 664.144531 855.917969 664.144531 855.917969 665.289062 856.636719 L 665.289062 857.1875 L 665.75 857.410156 C 666.441406 857.761719 667.105469 858.125 667.75 858.554688 L 667.75 859.101562 L 668.847656 859.375 L 668.847656 859.921875 L 669.449219 860.144531 C 670.207031 860.46875 670.847656 860.835938 671.53125 861.292969 L 672.1875 861.71875 L 672.679688 862.113281 L 672.679688 862.660156 L 673.5 862.660156 L 673.5 863.207031 L 674.320312 863.207031 L 674.320312 863.757812 L 675.140625 863.757812 L 675.140625 864.304688 L 675.964844 864.304688 L 675.964844 864.851562 C 676.691406 865.144531 677.410156 865.425781 678.152344 865.671875 L 678.152344 866.21875 L 678.976562 866.21875 L 678.976562 866.765625 L 680.890625 867.316406 L 680.890625 867.863281 L 681.710938 867.863281 L 681.710938 868.410156 L 682.414062 868.632812 C 683.394531 868.96875 684.324219 869.363281 685.269531 869.777344 L 685.269531 870.324219 L 685.738281 870.425781 C 686.417969 870.613281 687.023438 870.871094 687.667969 871.164062 L 688.328125 871.464844 L 688.828125 871.695312 L 688.828125 872.242188 L 690.746094 872.515625 L 690.746094 873.0625 L 691.839844 873.0625 L 691.839844 873.609375 L 693.484375 873.882812 L 693.484375 874.433594 L 694.066406 874.535156 C 694.902344 874.714844 695.6875 874.972656 696.496094 875.253906 L 696.496094 875.800781 L 697.222656 875.902344 C 698.085938 876.066406 698.804688 876.296875 699.613281 876.625 L 700.464844 876.960938 L 701.371094 877.324219 C 713.429688 882.042969 725.878906 884.199219 738.652344 885.929688 C 739.261719 887.144531 739.273438 888.28125 739.261719 889.613281 L 739.261719 890.292969 C 739.261719 890.769531 739.257812 891.246094 739.257812 891.722656 C 739.25 892.4375 739.25 893.148438 739.25 893.863281 C 739.246094 896.703125 739.140625 899.519531 738.925781 902.355469 L 736.90625 902.390625 L 736.308594 902.402344 C 731.855469 902.4375 727.433594 901.507812 723.082031 900.660156 L 722.226562 900.496094 C 713.628906 898.828125 705.277344 896.585938 697.042969 893.59375 L 696.429688 893.371094 C 694.425781 892.648438 692.445312 891.890625 690.515625 890.984375 C 689.8125 890.660156 689.109375 890.339844 688.402344 890.027344 C 685.492188 888.734375 682.625 887.390625 679.796875 885.929688 C 679.609375 885.832031 679.421875 885.738281 679.230469 885.640625 C 673.457031 882.660156 667.914062 879.285156 662.585938 875.570312 C 661.800781 875 661.800781 875 661.179688 874.707031 L 661.179688 874.160156 L 660.585938 873.949219 C 658.066406 872.847656 655.847656 870.617188 653.730469 868.875 C 652.652344 867.988281 651.554688 867.132812 650.429688 866.308594 C 649.753906 865.789062 649.183594 865.1875 648.589844 864.578125 C 648.007812 864.074219 647.421875 863.578125 646.828125 863.085938 L 646.398438 862.660156 L 646.398438 862.113281 L 645.914062 861.890625 C 645.296875 861.5625 644.808594 861.199219 644.277344 860.746094 L 643.769531 860.316406 L 643.386719 859.921875 L 643.386719 859.375 L 642.839844 859.375 C 642.445312 858.964844 642.445312 858.964844 641.984375 858.402344 C 641.316406 857.609375 640.644531 856.921875 639.847656 856.261719 C 638.757812 855.347656 637.929688 854.304688 637.078125 853.171875 C 636.503906 852.484375 635.875 851.988281 635.175781 851.4375 C 634.894531 850.984375 634.621094 850.527344 634.351562 850.070312 C 633.925781 849.5625 633.488281 849.066406 633.042969 848.578125 L 632.710938 848.152344 L 632.710938 847.605469 L 632.199219 847.398438 L 631.617188 847.058594 C 631.425781 846.695312 631.242188 846.332031 631.070312 845.960938 L 630.488281 845.378906 L 629.972656 844.867188 L 629.972656 844.320312 L 629.425781 844.320312 C 629.019531 843.835938 629.019531 843.835938 628.519531 843.121094 L 627.929688 842.289062 L 627.597656 841.816406 C 627.203125 841.265625 626.808594 840.71875 626.40625 840.175781 C 618.964844 830.027344 612.882812 818.984375 608.074219 807.363281 L 607.828125 806.777344 C 602.011719 792.742188 597.253906 776.382812 597.671875 761.101562 C 599.417969 760.878906 601.121094 760.785156 602.882812 760.789062 M 761.375 597.398438 C 762.589844 597.429688 763.804688 597.570312 765.019531 597.6875 L 765.585938 597.742188 C 781.632812 599.328125 797.347656 603.726562 812.085938 610.226562 C 812.707031 610.484375 813.28125 610.675781 813.933594 610.8125 L 813.933594 611.359375 L 814.480469 611.445312 C 815.53125 611.683594 816.488281 612.0625 817.492188 612.453125 L 817.492188 613 L 818.183594 613.207031 C 819.265625 613.597656 820.230469 614.105469 821.238281 614.660156 C 822.609375 615.421875 822.609375 615.421875 824.0625 616.011719 L 824.0625 616.558594 L 825.15625 616.558594 L 825.15625 617.105469 L 825.882812 617.320312 C 826.804688 617.65625 827.507812 618.066406 828.324219 618.613281 C 829.253906 619.238281 830.125 619.734375 831.179688 620.117188 L 831.179688 620.664062 L 831.796875 620.90625 C 832.425781 621.164062 833.039062 621.449219 833.644531 621.761719 L 833.644531 622.308594 L 834.207031 622.515625 C 835.167969 622.921875 836.03125 623.421875 836.929688 623.949219 L 836.929688 624.5 L 837.578125 624.753906 C 838.296875 625.046875 838.296875 625.046875 838.84375 625.320312 L 838.84375 625.867188 L 839.476562 626.105469 C 840.214844 626.414062 840.214844 626.414062 841.035156 626.960938 L 841.035156 627.507812 L 841.855469 627.507812 L 841.855469 628.058594 L 842.316406 628.28125 C 843.007812 628.632812 843.671875 628.996094 844.320312 629.425781 L 844.320312 629.972656 L 844.796875 630.207031 C 846.414062 631.027344 847.578125 631.824219 848.699219 633.257812 C 849.269531 633.707031 849.851562 634.125 850.449219 634.535156 L 850.890625 634.902344 L 850.890625 635.449219 L 851.355469 635.652344 C 852.089844 636.054688 852.660156 636.535156 853.285156 637.089844 L 853.949219 637.671875 L 854.449219 638.1875 L 854.449219 638.734375 L 854.90625 638.921875 C 855.726562 639.382812 856.296875 639.96875 856.960938 640.632812 L 857.367188 641.039062 C 857.648438 641.324219 857.929688 641.605469 858.210938 641.890625 C 858.636719 642.320312 859.058594 642.746094 859.488281 643.171875 C 860.824219 644.515625 862.128906 645.867188 863.359375 647.308594 C 863.910156 647.945312 864.484375 648.554688 865.054688 649.171875 C 866.5 650.753906 867.816406 652.425781 869.125 654.125 C 869.492188 654.597656 869.867188 655.066406 870.238281 655.535156 C 876.386719 663.238281 881.402344 671.609375 886.121094 680.242188 C 886.359375 680.675781 886.601562 681.109375 886.847656 681.542969 C 887.664062 682.984375 888.308594 684.433594 888.910156 685.980469 L 889.214844 686.640625 L 889.761719 686.914062 L 889.863281 687.476562 C 890.054688 688.363281 890.386719 689.015625 890.820312 689.800781 C 891.101562 690.40625 891.3125 690.996094 891.515625 691.628906 C 891.855469 692.664062 892.242188 693.664062 892.664062 694.667969 C 895.347656 701.085938 897.238281 707.792969 898.796875 714.5625 L 898.996094 715.425781 C 899.660156 718.324219 900.265625 721.222656 900.714844 724.164062 C 900.863281 725.109375 901.039062 726.035156 901.28125 726.964844 C 901.515625 727.910156 901.554688 728.652344 901.535156 729.617188 C 901.617188 730.074219 901.707031 730.53125 901.808594 730.988281 C 902.304688 733.339844 902.589844 735.699219 902.628906 738.105469 L 902.355469 738.925781 C 900.671875 739.136719 898.980469 739.242188 897.28125 739.234375 L 896.554688 739.238281 C 896.050781 739.238281 895.546875 739.238281 895.046875 739.234375 C 894.28125 739.234375 893.515625 739.234375 892.753906 739.238281 C 892.261719 739.238281 891.769531 739.238281 891.277344 739.234375 L 890.59375 739.238281 C 889.125 739.230469 887.652344 739.1875 886.203125 738.925781 L 885.929688 738.652344 C 885.816406 737.980469 885.71875 737.316406 885.632812 736.644531 L 885.546875 736.019531 L 885.371094 734.699219 C 885.21875 733.566406 885.066406 732.4375 884.910156 731.304688 L 884.820312 730.636719 C 884.542969 728.660156 884.226562 726.695312 883.871094 724.734375 C 883.753906 723.996094 883.710938 723.25 883.738281 722.5 L 883.191406 722.226562 C 883.128906 721.742188 883.070312 721.253906 883.019531 720.765625 C 882.796875 719.148438 882.355469 717.566406 881.960938 715.980469 L 881.816406 715.402344 C 879.496094 706.167969 876.125 696.992188 871.695312 688.554688 L 871.28125 687.765625 C 867.640625 680.820312 863.574219 674.261719 858.828125 668.023438 L 858.222656 667.207031 C 854.269531 661.863281 849.742188 657.003906 845.054688 652.300781 C 844.855469 652.097656 844.652344 651.894531 844.445312 651.6875 L 843.878906 651.121094 L 843.375 650.621094 C 842.960938 650.203125 842.960938 650.203125 842.402344 649.957031 L 842.402344 649.410156 L 841.925781 649.1875 C 841.292969 648.855469 840.753906 648.503906 840.214844 648.039062 L 840.214844 647.492188 L 839.71875 647.265625 C 839.144531 646.960938 838.730469 646.648438 838.246094 646.210938 L 837.757812 645.769531 L 837.238281 645.304688 C 835.671875 643.917969 834.070312 642.65625 832.335938 641.492188 C 831.941406 641.222656 831.558594 640.9375 831.179688 640.648438 L 831.179688 640.101562 L 830.628906 639.921875 C 829.53125 639.429688 828.625 638.742188 827.65625 638.03125 C 825.914062 636.773438 824.148438 635.617188 822.273438 634.5625 C 821.859375 634.324219 821.453125 634.066406 821.050781 633.804688 L 821.050781 633.257812 L 820.464844 633.179688 C 819.53125 632.945312 818.914062 632.550781 818.109375 632.027344 C 814.84375 629.949219 811.378906 628.246094 807.863281 626.644531 C 807.199219 626.339844 806.539062 626.027344 805.882812 625.710938 C 805.1875 625.386719 804.492188 625.0625 803.796875 624.746094 C 803.441406 624.582031 803.085938 624.417969 802.734375 624.253906 C 790.078125 618.398438 775.71875 615.496094 761.90625 614.175781 L 761.375 614.097656 L 761.101562 613.820312 C 760.816406 612.308594 760.785156 610.835938 760.789062 609.300781 L 760.789062 608.554688 C 760.789062 608.035156 760.789062 607.519531 760.789062 607 C 760.792969 606.214844 760.789062 605.429688 760.789062 604.640625 C 760.789062 604.136719 760.789062 603.628906 760.789062 603.125 L 760.789062 602.421875 C 760.792969 600.835938 760.847656 599.242188 761.101562 597.671875 Z M 761.375 597.398438 " fill-opacity="1" fill-rule="nonzero"/><path fill="#f7f7f7" d="M 761.101562 631.617188 C 763.289062 631.5625 765.371094 631.679688 767.53125 632.027344 L 768.441406 632.171875 C 779.277344 633.96875 790.132812 636.851562 799.996094 641.757812 C 800.589844 642.054688 801.1875 642.339844 801.78125 642.628906 C 811.722656 647.472656 820.953125 653.65625 829.125 661.109375 C 829.5 661.453125 829.882812 661.789062 830.273438 662.121094 C 831.792969 663.425781 833.21875 664.820312 834.632812 666.242188 C 835.027344 666.636719 835.425781 667.03125 835.820312 667.425781 C 837.253906 668.859375 838.632812 670.3125 839.941406 671.855469 L 840.671875 672.695312 C 842.480469 674.808594 844.183594 676.984375 845.824219 679.234375 C 846.09375 679.601562 846.363281 679.96875 846.632812 680.335938 C 858.320312 696.148438 865.175781 714.679688 868.136719 734 L 868.234375 734.601562 C 868.457031 736.054688 868.429688 737.460938 868.410156 738.925781 L 864.578125 738.925781 C 864.136719 737.542969 863.9375 736.296875 863.859375 734.835938 L 863.828125 734.269531 C 863.800781 733.8125 863.777344 733.359375 863.757812 732.902344 L 863.207031 732.902344 L 863.480469 731.261719 L 862.933594 730.988281 L 863.207031 729.617188 L 862.660156 729.34375 L 862.933594 727.976562 L 862.386719 727.703125 C 862.324219 727.144531 862.269531 726.585938 862.214844 726.027344 C 862.003906 724.390625 861.539062 722.796875 861.121094 721.199219 L 860.976562 720.636719 C 860.222656 717.726562 859.347656 714.851562 858.347656 712.015625 C 858.007812 711.003906 858.007812 711.003906 858.007812 710.457031 L 857.460938 710.183594 L 857.1875 708.265625 L 856.636719 707.992188 C 856.464844 707.359375 856.359375 706.730469 856.246094 706.085938 L 856.089844 705.527344 L 855.542969 705.253906 C 855.359375 704.683594 855.269531 704.214844 855.269531 703.613281 L 854.722656 703.339844 C 854.4375 702.585938 854.207031 701.847656 854.039062 701.0625 L 853.902344 700.601562 L 853.351562 700.328125 C 853.128906 699.886719 853.128906 699.886719 852.890625 699.300781 C 852.265625 697.828125 851.5 696.445312 850.722656 695.050781 C 850.34375 694.304688 850.34375 694.304688 850.34375 693.757812 L 849.792969 693.484375 C 849.601562 693.125 849.421875 692.757812 849.246094 692.386719 C 848.847656 691.6875 848.429688 690.996094 848.015625 690.300781 L 847.679688 689.738281 C 847.242188 689.003906 846.84375 688.339844 846.234375 687.734375 C 846.027344 687.371094 845.828125 687 845.632812 686.628906 C 844.871094 685.234375 843.972656 683.976562 843.019531 682.703125 L 842.503906 682.011719 C 841.238281 680.320312 839.9375 678.671875 838.570312 677.058594 C 838.3125 676.75 838.058594 676.441406 837.800781 676.132812 L 836.996094 675.175781 L 836.625 674.730469 C 836.066406 674.070312 835.5 673.441406 834.886719 672.832031 C 834.378906 672.320312 833.890625 671.785156 833.425781 671.234375 C 832.429688 670.054688 831.347656 668.972656 830.253906 667.886719 L 829.660156 667.289062 C 828.390625 666.023438 827.070312 664.808594 825.703125 663.644531 L 824.9375 662.984375 C 818.5625 657.589844 818.5625 657.589844 811.46875 653.242188 L 811.46875 652.695312 L 810.101562 652.421875 L 810.101562 651.875 L 809.609375 651.773438 C 808.820312 651.546875 808.21875 651.101562 807.535156 650.660156 C 806.484375 650.03125 805.386719 649.503906 804.289062 648.964844 C 803.183594 648.421875 802.089844 647.859375 801.007812 647.277344 C 798.632812 646 796.339844 644.816406 793.769531 643.976562 C 792.949219 643.695312 792.167969 643.363281 791.378906 642.996094 C 782.109375 638.71875 771.46875 636.789062 761.375 635.722656 C 761.023438 634.980469 760.824219 634.449219 760.832031 633.621094 Z M 631.617188 761.101562 C 632.25 761.09375 632.882812 761.085938 633.515625 761.082031 L 634.582031 761.074219 L 635.449219 761.101562 L 635.722656 761.375 C 635.804688 761.855469 635.878906 762.339844 635.941406 762.828125 L 636.066406 763.761719 L 636.203125 764.777344 C 637.046875 770.863281 638.257812 776.765625 639.949219 782.671875 C 640.101562 783.273438 640.101562 783.273438 640.101562 783.820312 L 640.648438 783.820312 C 640.777344 784.277344 640.902344 784.734375 641.027344 785.191406 L 641.253906 786.015625 C 641.4375 786.707031 641.605469 787.402344 641.761719 788.097656 L 642.019531 789.023438 L 642.566406 789.296875 C 642.78125 789.984375 642.78125 789.984375 642.976562 790.851562 C 643.246094 792 643.535156 793.113281 643.933594 794.222656 L 644.480469 794.222656 L 644.480469 795.59375 L 645.03125 795.867188 L 645.335938 796.859375 C 645.777344 798.261719 646.449219 799.511719 647.152344 800.792969 C 647.738281 801.867188 648.300781 802.953125 648.835938 804.050781 C 649.726562 805.871094 650.679688 807.652344 651.703125 809.398438 L 652.058594 810.011719 C 652.351562 810.507812 652.65625 810.988281 652.96875 811.46875 L 653.515625 811.742188 C 653.777344 812.265625 654.03125 812.785156 654.285156 813.3125 C 654.835938 814.363281 655.535156 815.304688 656.238281 816.261719 L 656.707031 816.902344 C 658.183594 818.914062 659.742188 820.847656 661.335938 822.765625 C 661.683594 823.1875 662.027344 823.613281 662.363281 824.039062 C 665.886719 828.453125 669.9375 832.824219 674.382812 836.320312 C 675.089844 836.886719 675.769531 837.472656 676.453125 838.074219 C 684.328125 844.980469 693.546875 850.417969 703.066406 854.722656 L 703.617188 854.976562 C 714.40625 859.933594 726.199219 862.621094 737.914062 864.175781 L 738.652344 864.304688 L 738.925781 864.578125 C 738.945312 865.222656 738.949219 865.867188 738.941406 866.511719 L 738.9375 867.582031 L 738.925781 868.410156 C 736.363281 868.515625 733.914062 868.113281 731.398438 867.691406 L 730.71875 867.578125 C 721.429688 866.035156 712.15625 863.683594 703.574219 859.734375 C 702.808594 859.386719 702.039062 859.039062 701.269531 858.699219 C 693.347656 855.152344 685.882812 850.84375 678.984375 845.566406 C 678.472656 845.175781 677.964844 844.792969 677.449219 844.410156 C 675.378906 842.847656 673.40625 841.183594 671.453125 839.480469 C 671.085938 839.164062 670.722656 838.847656 670.355469 838.53125 C 669.355469 837.667969 668.414062 836.769531 667.476562 835.832031 L 666.65625 835.167969 C 665.8125 834.445312 665.164062 833.679688 664.464844 832.820312 C 664.011719 832.363281 663.554688 831.910156 663.097656 831.453125 C 662.515625 830.847656 661.941406 830.238281 661.371094 829.621094 L 660.914062 829.140625 C 660.535156 828.734375 660.171875 828.316406 659.8125 827.894531 L 659.8125 827.347656 L 659.265625 827.347656 C 658.800781 826.816406 658.355469 826.265625 657.929688 825.703125 L 657.527344 825.179688 C 657.242188 824.8125 656.960938 824.441406 656.679688 824.074219 C 656.273438 823.542969 655.867188 823.015625 655.460938 822.488281 C 643.042969 806.316406 635.433594 787.632812 632.078125 767.601562 L 631.933594 766.773438 C 631.632812 764.871094 631.5625 763.023438 631.617188 761.101562 M 738.925781 631.617188 L 738.925781 635.449219 C 737.132812 636.039062 735.316406 636.25 733.449219 636.492188 C 729.933594 636.972656 726.5 637.640625 723.046875 638.460938 L 721.671875 638.773438 C 702.722656 643.203125 685.320312 653.464844 671.128906 666.605469 C 667.058594 670.453125 667.058594 670.453125 663.402344 674.683594 C 662.847656 675.382812 662.269531 676.054688 661.679688 676.722656 C 658.304688 680.570312 655.398438 684.765625 652.695312 689.101562 L 652.390625 689.585938 C 648.660156 695.464844 644.886719 702.167969 643.097656 708.925781 C 642.839844 709.632812 642.839844 709.632812 642.332031 710.484375 C 641.566406 711.785156 641.148438 713.183594 640.703125 714.613281 L 640.417969 715.519531 C 638.1875 722.742188 636.628906 730.128906 635.820312 737.644531 C 635.722656 738.378906 635.722656 738.378906 635.449219 738.925781 L 631.617188 738.925781 C 631.570312 736.761719 631.714844 734.71875 632.042969 732.578125 C 632.089844 732.261719 632.140625 731.945312 632.191406 731.621094 C 634.101562 719.570312 637.714844 707.59375 643.386719 696.769531 L 643.796875 695.980469 C 649.90625 684.257812 657.6875 673.980469 667 664.636719 L 667.695312 663.9375 C 669.039062 662.597656 670.414062 661.316406 671.855469 660.085938 L 672.65625 659.382812 C 687.949219 646.203125 707.023438 636.824219 726.867188 633.050781 C 734.847656 631.566406 734.847656 631.566406 738.925781 631.617188 " fill-opacity="1" fill-rule="nonzero"/><path fill="#f8f8f8" d="M 864.578125 761.101562 C 865.222656 761.078125 865.867188 761.078125 866.511719 761.082031 L 867.582031 761.089844 L 868.410156 761.101562 C 868.507812 763.605469 868.148438 765.996094 867.742188 768.457031 L 867.632812 769.121094 C 866.160156 778.078125 863.800781 786.972656 860.195312 795.320312 L 859.953125 795.878906 C 859.414062 797.128906 858.859375 798.371094 858.296875 799.609375 C 858.105469 800.027344 857.917969 800.445312 857.730469 800.867188 C 855.996094 804.746094 853.910156 808.386719 851.710938 812.015625 L 851.269531 812.746094 C 849.503906 815.652344 847.609375 818.414062 845.523438 821.101562 C 845.164062 821.570312 844.804688 822.042969 844.453125 822.515625 C 842.691406 824.859375 840.796875 827.074219 838.84375 829.261719 L 838.445312 829.710938 C 836.699219 831.664062 834.875 833.535156 833.027344 835.386719 L 832.410156 836.011719 C 831.132812 837.28125 829.8125 838.5 828.441406 839.664062 L 827.996094 840.054688 C 825.835938 841.921875 823.613281 843.707031 821.324219 845.414062 L 820.78125 845.824219 C 810.5625 853.464844 799.167969 859.125 787.105469 863.207031 L 786.480469 863.421875 C 778.566406 866.117188 769.515625 868.542969 761.101562 868.410156 L 761.101562 864.578125 C 762.941406 863.960938 762.941406 863.960938 763.96875 863.84375 L 764.664062 863.757812 L 765.410156 863.671875 C 782.539062 861.453125 798.984375 855.199219 813.386719 845.6875 L 813.972656 845.300781 C 818.722656 842.144531 823.082031 838.519531 827.347656 834.738281 L 827.945312 834.21875 C 829.414062 832.921875 830.828125 831.566406 832.222656 830.1875 L 832.75 829.671875 C 833.824219 828.601562 834.699219 827.5 835.558594 826.253906 C 836.011719 825.789062 836.464844 825.335938 836.929688 824.882812 C 849.625 811.25 857.867188 793.054688 862.023438 775.066406 C 862.996094 770.769531 863.699219 766.398438 864.207031 762.019531 L 864.304688 761.375 Z M 864.578125 761.101562 " fill-opacity="1" fill-rule="nonzero"/><path fill="#f7f7f7" d="M 760.003906 726.332031 C 760.824219 726.800781 761.640625 727.273438 762.457031 727.746094 C 763.183594 728.167969 763.859375 728.53125 764.660156 728.796875 C 765.121094 729.246094 765.578125 729.703125 766.027344 730.164062 L 766.847656 730.714844 L 766.847656 731.261719 L 767.339844 731.332031 C 767.945312 731.535156 767.945312 731.535156 768.382812 731.976562 L 768.816406 732.5625 L 769.3125 733.234375 L 769.859375 734 L 770.484375 734.855469 C 772.226562 737.285156 773.53125 739.667969 774.445312 742.519531 L 774.621094 743.0625 C 775.785156 746.894531 775.789062 751.59375 775.027344 755.503906 C 773.789062 760.257812 771.460938 764.488281 768.09375 768.066406 C 764.785156 771.394531 760.738281 773.347656 756.335938 774.8125 C 754.171875 775.359375 751.996094 775.382812 749.773438 775.386719 L 748.972656 775.394531 C 744.75 775.40625 740.882812 774.167969 737.214844 772.117188 C 733.5625 769.945312 730.394531 766.996094 728.21875 763.324219 C 725.765625 758.898438 724.390625 754.367188 724.410156 749.289062 C 724.554688 745.523438 725.414062 742.003906 727.15625 738.652344 L 727.601562 737.753906 C 728.515625 735.972656 729.460938 734.238281 730.988281 732.902344 L 731.535156 732.902344 L 731.722656 732.425781 C 732.175781 731.648438 732.738281 731.253906 733.449219 730.714844 L 733.828125 730.328125 C 736.578125 727.632812 740.414062 726.046875 744.089844 725.101562 C 748.878906 723.984375 755.585938 723.894531 760.003906 726.332031 M 739.746094 729.617188 L 738.984375 730.007812 C 735.164062 732.078125 732.265625 735.167969 729.976562 738.839844 C 727.851562 742.597656 727.34375 746.414062 727.34375 750.671875 C 727.394531 754.960938 728.535156 758.507812 730.714844 762.195312 C 732.882812 765.625 735.628906 768.21875 739.199219 770.132812 C 740.53125 770.789062 741.898438 771.300781 743.304688 771.777344 L 744.125 772.058594 C 747.707031 773.085938 752.140625 773.070312 755.761719 772.1875 C 759.789062 770.996094 763.324219 768.957031 766.371094 766.0625 C 769.09375 763.191406 771.203125 759.46875 772.1875 755.625 C 773.082031 751.636719 773.039062 747.160156 771.882812 743.234375 C 770.382812 739.207031 768.203125 735.476562 764.933594 732.628906 C 762.011719 730.246094 758.101562 728.128906 754.359375 727.503906 C 749.375 726.914062 744.238281 727.21875 739.746094 729.617188 M 748.78125 781.632812 L 751.246094 781.632812 L 751.25 782.425781 C 751.277344 788.796875 751.304688 795.167969 751.335938 801.542969 C 751.351562 804.621094 751.367188 807.703125 751.378906 810.785156 C 751.394531 813.472656 751.40625 816.15625 751.417969 818.84375 C 751.425781 820.265625 751.433594 821.6875 751.4375 823.109375 C 751.445312 824.449219 751.449219 825.789062 751.457031 827.128906 C 751.460938 827.617188 751.464844 828.109375 751.464844 828.601562 C 751.46875 829.273438 751.46875 829.945312 751.476562 830.613281 L 751.476562 831.199219 C 751.488281 832.492188 751.613281 833.734375 751.792969 835.011719 L 752.417969 835.058594 C 753.34375 835.128906 754.269531 835.199219 755.195312 835.269531 L 756.179688 835.339844 L 757.113281 835.414062 L 757.976562 835.476562 L 758.636719 835.558594 L 758.910156 835.832031 C 758.929688 836.25 758.933594 836.667969 758.925781 837.082031 L 758.917969 837.769531 L 758.910156 838.296875 C 757.449219 838.601562 756.046875 838.601562 754.5625 838.589844 L 753.835938 838.585938 C 753.246094 838.582031 752.65625 838.578125 752.066406 838.570312 L 752.066406 839.390625 L 751.519531 839.390625 C 751.503906 840.683594 751.496094 841.972656 751.488281 843.261719 C 751.484375 843.703125 751.480469 844.140625 751.476562 844.578125 C 751.46875 845.210938 751.46875 845.84375 751.464844 846.476562 L 751.457031 847.0625 C 751.457031 848.363281 751.648438 849.402344 752.066406 850.617188 L 752.339844 850.890625 C 752.886719 850.945312 753.433594 850.992188 753.980469 851.027344 C 754.53125 851.0625 755.078125 851.105469 755.625 851.164062 L 755.898438 851.4375 C 756.40625 851.5 756.914062 851.550781 757.421875 851.589844 L 758.261719 851.660156 L 758.910156 851.710938 C 758.917969 852.117188 758.921875 852.519531 758.925781 852.925781 L 758.9375 853.609375 L 758.910156 854.175781 L 758.636719 854.449219 C 758.148438 854.472656 757.660156 854.476562 757.171875 854.476562 L 756.277344 854.472656 L 755.335938 854.464844 L 754.386719 854.460938 C 753.613281 854.457031 752.839844 854.453125 752.066406 854.449219 L 752.066406 854.996094 L 751.519531 854.996094 L 751.523438 855.640625 C 751.554688 860.941406 751.507812 866.238281 751.417969 871.539062 L 751.382812 873.566406 C 751.367188 874.523438 751.351562 875.480469 751.332031 876.4375 L 751.316406 877.320312 L 751.300781 878.125 L 751.289062 878.828125 L 751.246094 879.359375 L 750.972656 879.632812 C 750.238281 879.671875 749.511719 879.644531 748.78125 879.632812 C 748.433594 878.59375 748.457031 877.617188 748.449219 876.53125 L 748.441406 875.828125 C 748.433594 875.058594 748.425781 874.289062 748.421875 873.523438 L 748.402344 871.921875 C 748.386719 870.519531 748.375 869.117188 748.363281 867.714844 C 748.347656 866.285156 748.332031 864.851562 748.316406 863.421875 C 748.289062 860.613281 748.261719 857.804688 748.234375 854.996094 C 747.53125 854.644531 746.984375 854.664062 746.195312 854.636719 L 745.300781 854.601562 L 744.367188 854.566406 L 743.425781 854.53125 C 742.65625 854.503906 741.886719 854.476562 741.117188 854.449219 L 741.117188 851.710938 L 742.472656 851.601562 L 744.230469 851.453125 L 745.125 851.382812 L 745.980469 851.308594 L 746.773438 851.246094 C 747.417969 851.199219 747.417969 851.199219 747.960938 850.890625 L 747.960938 850.34375 L 748.507812 850.34375 L 748.507812 839.390625 L 747.960938 839.390625 L 747.414062 838.570312 C 746.8125 838.460938 746.8125 838.460938 746.121094 838.5 L 745.347656 838.511719 L 744.539062 838.535156 C 744.011719 838.546875 743.484375 838.558594 742.957031 838.570312 L 742.246094 838.589844 C 741.664062 838.570312 741.664062 838.570312 741.117188 838.296875 C 740.910156 837.835938 740.910156 837.835938 740.84375 837.203125 C 741.015625 836.652344 741.195312 836.105469 741.390625 835.558594 L 742.410156 835.507812 L 743.75 835.441406 L 744.421875 835.40625 C 745.621094 835.34375 746.777344 835.238281 747.960938 835.011719 L 747.960938 834.464844 L 748.507812 834.464844 L 748.507812 833.648438 C 748.5 827.113281 748.496094 820.578125 748.492188 814.039062 C 748.492188 810.878906 748.488281 807.71875 748.488281 804.558594 C 748.484375 801.804688 748.480469 799.050781 748.480469 796.296875 C 748.480469 794.835938 748.480469 793.378906 748.476562 791.917969 C 748.476562 790.546875 748.476562 789.175781 748.476562 787.804688 C 748.476562 787.300781 748.476562 786.792969 748.476562 786.289062 C 748.472656 785.601562 748.472656 784.914062 748.472656 784.230469 L 748.472656 783.617188 C 748.476562 782.242188 748.476562 782.242188 748.78125 781.632812 " fill-opacity="1" fill-rule="nonzero"/><path fill="#f6f6f6" d="M 748.78125 620.390625 L 751.246094 620.390625 C 751.503906 621.703125 751.554688 622.976562 751.550781 624.308594 L 751.550781 624.980469 C 751.550781 625.707031 751.546875 626.4375 751.546875 627.164062 L 751.542969 628.6875 C 751.542969 630.019531 751.539062 631.347656 751.539062 632.679688 C 751.535156 634.039062 751.53125 635.398438 751.53125 636.757812 C 751.527344 639.425781 751.523438 642.089844 751.519531 644.757812 L 752.066406 644.757812 L 752.339844 645.304688 L 752.914062 645.324219 C 753.765625 645.355469 754.617188 645.390625 755.46875 645.421875 L 756.375 645.457031 L 757.230469 645.492188 L 758.027344 645.519531 L 758.636719 645.578125 L 758.910156 645.851562 C 758.976562 647.636719 758.976562 647.636719 758.636719 648.316406 C 758.039062 648.414062 758.039062 648.414062 757.261719 648.457031 L 756.414062 648.515625 C 755.820312 648.554688 755.230469 648.589844 754.636719 648.621094 L 753.789062 648.679688 L 753.007812 648.726562 C 752.34375 648.824219 752.34375 648.824219 751.84375 649.15625 C 751.449219 649.710938 751.449219 649.710938 751.417969 650.589844 C 751.414062 650.964844 751.414062 651.339844 751.417969 651.714844 L 751.417969 652.316406 C 751.417969 652.742188 751.421875 653.164062 751.425781 653.585938 C 751.433594 654.226562 751.433594 654.867188 751.429688 655.507812 C 751.433594 657.550781 751.496094 659.476562 752.066406 661.453125 L 752.664062 661.449219 C 753.554688 661.445312 754.445312 661.441406 755.332031 661.4375 L 756.277344 661.429688 L 757.171875 661.429688 L 758 661.421875 L 758.636719 661.453125 L 758.910156 661.726562 C 758.945312 662.226562 758.945312 662.226562 758.945312 662.824219 L 758.945312 663.421875 L 758.910156 663.917969 L 758.636719 664.191406 C 758.179688 664.238281 757.71875 664.269531 757.261719 664.289062 L 756.414062 664.34375 C 755.820312 664.378906 755.230469 664.410156 754.636719 664.4375 L 753.789062 664.496094 L 753.007812 664.539062 L 752.339844 664.738281 C 751.851562 665.3125 751.851562 665.3125 751.519531 666.109375 C 751.445312 666.796875 751.417969 667.488281 751.429688 668.179688 L 751.429688 668.804688 C 751.433594 669.496094 751.441406 670.1875 751.449219 670.878906 C 751.449219 671.375 751.453125 671.871094 751.453125 672.367188 C 751.457031 673.4375 751.464844 674.507812 751.472656 675.578125 C 751.492188 678.148438 751.496094 680.71875 751.503906 683.292969 L 751.507812 685.085938 C 751.53125 691.902344 751.480469 698.714844 751.40625 705.527344 C 751.398438 706.421875 751.390625 707.3125 751.382812 708.203125 C 751.371094 709.601562 751.355469 711.003906 751.339844 712.402344 C 751.335938 712.917969 751.328125 713.433594 751.324219 713.949219 C 751.316406 714.652344 751.308594 715.355469 751.300781 716.054688 L 751.296875 716.683594 C 751.289062 717.164062 751.269531 717.640625 751.246094 718.121094 L 750.972656 718.394531 C 750.238281 718.433594 749.511719 718.40625 748.78125 718.394531 C 748.574219 716.925781 748.46875 715.492188 748.472656 714.007812 L 748.472656 713.371094 C 748.472656 712.675781 748.472656 711.980469 748.476562 711.28125 L 748.476562 709.777344 C 748.476562 708.417969 748.476562 707.058594 748.480469 705.699219 C 748.480469 704.28125 748.480469 702.859375 748.480469 701.4375 C 748.484375 698.746094 748.484375 696.058594 748.488281 693.371094 C 748.492188 690.308594 748.492188 687.242188 748.492188 684.179688 C 748.496094 677.882812 748.5 671.585938 748.507812 665.289062 L 747.960938 665.289062 L 747.960938 664.738281 L 741.117188 664.191406 L 741.117188 661.726562 L 741.390625 661.453125 C 742.1875 661.394531 742.984375 661.351562 743.785156 661.316406 C 744.226562 661.300781 744.671875 661.277344 745.117188 661.257812 L 745.714844 661.234375 C 746.386719 661.175781 747.027344 661.050781 747.6875 660.90625 C 748.230469 658.316406 748.300781 655.804688 748.269531 653.171875 C 748.265625 652.78125 748.261719 652.386719 748.261719 651.992188 C 748.253906 651.039062 748.246094 650.089844 748.234375 649.136719 C 747.539062 648.789062 746.96875 648.777344 746.195312 648.714844 L 745.300781 648.644531 L 744.367188 648.570312 L 743.425781 648.496094 C 742.65625 648.433594 741.886719 648.375 741.117188 648.316406 C 741.109375 647.910156 741.101562 647.503906 741.097656 647.101562 L 741.089844 646.417969 L 741.117188 645.851562 L 741.390625 645.578125 C 741.855469 645.535156 742.324219 645.507812 742.792969 645.492188 L 743.652344 645.457031 L 744.554688 645.421875 L 745.460938 645.386719 C 746.203125 645.359375 746.945312 645.332031 747.6875 645.304688 L 747.960938 644.480469 L 748.507812 644.480469 L 748.503906 643.59375 C 748.5 640.828125 748.496094 638.066406 748.492188 635.300781 C 748.492188 633.882812 748.488281 632.460938 748.488281 631.039062 C 748.484375 629.667969 748.480469 628.296875 748.480469 626.929688 C 748.480469 626.40625 748.480469 625.882812 748.476562 625.359375 C 748.476562 624.625 748.476562 623.894531 748.476562 623.164062 L 748.472656 622.503906 C 748.476562 621.003906 748.476562 621.003906 748.78125 620.390625 " fill-opacity="1" fill-rule="nonzero"/><path fill="#f7f7f7" d="M 645.851562 741.117188 C 646.488281 741.105469 647.128906 741.105469 647.765625 741.117188 C 648.105469 741.703125 648.308594 742.148438 648.378906 742.828125 L 648.367188 743.460938 L 648.359375 744.09375 C 648.316406 744.675781 648.316406 744.675781 648.039062 745.496094 L 648.589844 745.496094 L 649.136719 747.960938 C 650.464844 748.386719 651.566406 748.574219 652.976562 748.5625 L 654.042969 748.554688 L 655.140625 748.542969 C 655.515625 748.539062 655.890625 748.535156 656.261719 748.535156 C 657.171875 748.527344 658.082031 748.519531 658.992188 748.507812 L 658.992188 748.234375 L 661.453125 747.960938 L 661.449219 747.359375 C 661.445312 746.472656 661.441406 745.582031 661.4375 744.691406 L 661.429688 743.75 L 661.429688 742.855469 L 661.421875 742.023438 L 661.453125 741.390625 L 661.726562 741.117188 C 662.144531 741.097656 662.5625 741.09375 662.976562 741.097656 L 663.664062 741.105469 L 664.191406 741.117188 C 664.433594 742.027344 664.46875 742.851562 664.449219 743.785156 C 664.441406 745.089844 664.433594 746.492188 665.011719 747.6875 C 665.589844 748.164062 665.589844 748.164062 666.382812 748.507812 C 667.105469 748.578125 667.761719 748.609375 668.484375 748.597656 L 669.117188 748.59375 C 669.820312 748.59375 670.519531 748.585938 671.222656 748.578125 C 671.726562 748.574219 672.226562 748.574219 672.730469 748.570312 C 673.816406 748.566406 674.902344 748.5625 675.984375 748.554688 C 678.585938 748.535156 681.1875 748.527344 683.789062 748.519531 L 685.597656 748.515625 C 692.394531 748.492188 699.1875 748.554688 705.984375 748.632812 L 708.628906 748.664062 C 711.882812 748.699219 715.140625 748.738281 718.394531 748.78125 L 718.394531 751.246094 C 713.402344 751.28125 708.414062 751.316406 703.421875 751.351562 C 701.101562 751.367188 698.785156 751.382812 696.464844 751.402344 C 693.347656 751.425781 690.230469 751.445312 687.113281 751.46875 C 679.050781 751.523438 679.050781 751.523438 675.125 751.515625 L 674.34375 751.515625 C 673.226562 751.515625 672.109375 751.507812 670.992188 751.5 C 668.265625 751.484375 668.265625 751.484375 665.5625 751.792969 L 665.289062 752.339844 L 664.464844 752.339844 L 664.46875 752.855469 C 664.476562 753.625 664.480469 754.394531 664.484375 755.164062 L 664.488281 755.972656 L 664.492188 756.75 L 664.496094 757.46875 C 664.464844 758.089844 664.464844 758.089844 664.191406 758.910156 C 663.785156 758.917969 663.382812 758.921875 662.976562 758.925781 L 662.292969 758.9375 L 661.726562 758.910156 L 661.453125 758.636719 C 661.433594 758.148438 661.421875 757.660156 661.429688 757.171875 L 661.429688 756.277344 L 661.4375 755.332031 L 661.441406 754.386719 C 661.445312 753.613281 661.449219 752.839844 661.453125 752.066406 L 660.789062 751.945312 L 660.085938 751.792969 L 659.8125 751.519531 C 659.277344 751.492188 658.742188 751.484375 658.203125 751.480469 L 657.195312 751.480469 L 656.132812 751.484375 L 655.097656 751.480469 C 652.238281 751.425781 652.238281 751.425781 649.410156 751.792969 L 649.136719 752.339844 L 648.589844 752.339844 L 648.316406 758.910156 L 645.851562 758.910156 L 645.578125 758.636719 C 645.554688 758.167969 645.546875 757.699219 645.550781 757.230469 L 645.554688 756.375 L 645.558594 755.472656 L 645.5625 754.5625 C 645.566406 753.824219 645.570312 753.082031 645.578125 752.339844 C 644.050781 751.722656 642.824219 751.476562 641.183594 751.460938 L 640.503906 751.453125 C 639.761719 751.445312 639.019531 751.4375 638.277344 751.433594 L 636.734375 751.414062 C 635.378906 751.398438 634.027344 751.386719 632.671875 751.371094 C 631.289062 751.359375 629.90625 751.34375 628.527344 751.328125 C 625.816406 751.300781 623.105469 751.269531 620.390625 751.246094 L 620.390625 748.78125 L 643.113281 748.507812 L 643.113281 748.234375 L 645.03125 747.960938 L 645.03125 747.414062 L 645.578125 747.414062 L 645.574219 746.863281 C 645.566406 746.046875 645.5625 745.234375 645.558594 744.417969 L 645.554688 743.554688 L 645.550781 742.734375 L 645.546875 741.972656 L 645.578125 741.390625 Z M 835.832031 741.117188 C 836.25 741.097656 836.667969 741.09375 837.082031 741.097656 L 837.769531 741.105469 L 838.296875 741.117188 C 838.398438 741.800781 838.496094 742.484375 838.589844 743.167969 L 838.675781 743.746094 C 838.859375 745.125 838.792969 746.3125 838.570312 747.6875 L 839.160156 747.796875 L 840.683594 748.085938 L 841.308594 748.234375 L 841.582031 748.507812 C 842.089844 748.53125 842.597656 748.535156 843.105469 748.535156 L 844.039062 748.53125 L 845.019531 748.523438 L 846.007812 748.519531 C 846.8125 748.515625 847.621094 748.511719 848.425781 748.507812 L 848.425781 748.234375 L 850.617188 747.960938 L 850.726562 747.371094 L 851.015625 745.847656 L 851.164062 745.222656 L 851.4375 744.949219 C 851.5 744.304688 851.550781 743.660156 851.589844 743.015625 L 851.660156 741.945312 L 851.710938 741.117188 C 852.117188 741.109375 852.519531 741.101562 852.925781 741.097656 L 853.609375 741.089844 L 854.175781 741.117188 L 854.449219 741.390625 C 854.46875 741.859375 854.480469 742.324219 854.476562 742.792969 L 854.472656 743.652344 L 854.464844 744.554688 L 854.460938 745.460938 C 854.457031 746.203125 854.453125 746.945312 854.449219 747.6875 L 855.039062 747.796875 L 855.800781 747.941406 L 856.558594 748.085938 L 857.1875 748.234375 L 857.460938 748.507812 C 857.882812 748.53125 858.308594 748.535156 858.730469 748.535156 L 859.554688 748.53125 L 860.460938 748.523438 C 861.097656 748.523438 861.730469 748.519531 862.367188 748.515625 L 863.378906 748.511719 C 868.804688 748.484375 874.214844 748.484375 879.632812 748.78125 L 879.632812 751.246094 L 878.710938 751.25 C 875.851562 751.273438 872.992188 751.296875 870.132812 751.324219 C 868.660156 751.335938 867.191406 751.351562 865.71875 751.359375 C 864.300781 751.371094 862.882812 751.382812 861.464844 751.398438 C 860.921875 751.402344 860.382812 751.40625 859.839844 751.410156 C 859.082031 751.414062 858.324219 751.421875 857.570312 751.429688 L 856.882812 751.433594 C 856.34375 751.441406 855.808594 751.476562 855.269531 751.519531 L 854.722656 752.066406 C 854.628906 752.71875 854.628906 752.71875 854.628906 753.476562 L 854.601562 754.324219 L 854.585938 755.214844 C 854.574219 755.792969 854.558594 756.371094 854.542969 756.949219 L 854.527344 757.730469 L 854.449219 758.363281 L 853.902344 758.910156 C 852.925781 758.960938 852.925781 758.960938 851.984375 758.910156 L 851.710938 758.636719 C 851.691406 758.039062 851.6875 757.4375 851.695312 756.839844 L 851.703125 755.847656 L 851.710938 755.078125 L 851.164062 755.078125 L 851.164062 752.339844 L 850.617188 752.066406 L 850.617188 751.792969 C 848.964844 751.398438 847.296875 751.46875 845.609375 751.46875 C 845.023438 751.464844 844.441406 751.460938 843.855469 751.457031 C 843.480469 751.457031 843.105469 751.457031 842.730469 751.457031 L 841.703125 751.453125 C 840.550781 751.535156 839.601562 751.824219 838.570312 752.339844 C 838.574219 752.519531 838.578125 752.699219 838.578125 752.882812 C 838.589844 753.695312 838.597656 754.503906 838.605469 755.316406 C 838.609375 755.597656 838.613281 755.882812 838.617188 756.171875 L 838.625 756.992188 L 838.632812 757.746094 L 838.570312 758.363281 L 838.023438 758.910156 C 837.289062 758.984375 836.574219 758.933594 835.832031 758.910156 C 835.492188 758.222656 835.527344 757.757812 835.53125 756.992188 L 835.535156 756.171875 L 835.542969 755.316406 L 835.546875 754.453125 C 835.550781 753.75 835.554688 753.042969 835.558594 752.339844 L 835.011719 752.339844 L 835.011719 751.792969 C 834.027344 751.464844 833.125 751.476562 832.097656 751.476562 L 831.445312 751.472656 C 830.71875 751.464844 829.996094 751.464844 829.273438 751.460938 L 827.71875 751.453125 C 826.3125 751.445312 824.902344 751.441406 823.496094 751.433594 C 822.023438 751.429688 820.550781 751.421875 819.082031 751.414062 C 816.296875 751.402344 813.507812 751.386719 810.722656 751.375 C 807.550781 751.363281 804.378906 751.347656 801.207031 751.332031 C 794.683594 751.300781 788.15625 751.273438 781.632812 751.246094 L 781.632812 748.78125 C 786.113281 748.734375 790.597656 748.6875 795.078125 748.644531 L 796.085938 748.632812 C 805.296875 748.542969 814.507812 748.480469 823.71875 748.488281 L 824.417969 748.492188 C 827.128906 748.492188 829.839844 748.5 832.546875 748.507812 L 832.546875 748.234375 L 835.011719 747.960938 L 835.011719 747.414062 L 835.558594 747.414062 L 835.554688 746.863281 C 835.550781 746.046875 835.546875 745.234375 835.542969 744.417969 L 835.535156 743.554688 L 835.53125 742.734375 L 835.527344 741.972656 L 835.558594 741.390625 Z M 835.832031 741.117188 " fill-opacity="1" fill-rule="nonzero"/><path fill="#a98a89" d="M 810.375 743.851562 L 810.648438 743.851562 L 811.195312 748.78125 L 807.636719 748.78125 L 807.363281 748.234375 L 809.28125 747.960938 L 809.554688 747.136719 L 810.101562 747.136719 Z M 810.375 743.851562 " fill-opacity="1" fill-rule="nonzero"/><path fill="#ad8684" d="M 751.246094 686.640625 L 751.519531 686.640625 L 751.519531 688.828125 L 752.46875 688.871094 L 753.691406 688.933594 L 754.316406 688.957031 C 754.847656 688.988281 755.371094 689.042969 755.898438 689.101562 L 756.171875 689.652344 L 755.480469 689.683594 L 754.582031 689.738281 L 753.6875 689.785156 C 752.890625 689.859375 752.890625 689.859375 752.40625 690.3125 L 752.066406 690.746094 L 751.519531 691.292969 C 751.097656 690.453125 751.214844 689.578125 751.226562 688.660156 L 751.230469 688.074219 C 751.234375 687.59375 751.238281 687.117188 751.246094 686.640625 " fill-opacity="1" fill-rule="nonzero"/><path fill="#a29292" d="M 688.554688 751.246094 L 692.664062 751.246094 L 691.839844 751.519531 L 691.839844 752.066406 L 691.070312 752.21875 L 690.199219 752.613281 C 689.804688 753.238281 689.613281 753.820312 689.378906 754.53125 L 689.101562 754.53125 L 689.101562 751.519531 Z M 688.554688 751.246094 " fill-opacity="1" fill-rule="nonzero"/><path fill="#ac8785" d="M 751.519531 809.007812 C 751.980469 809.171875 752.4375 809.355469 752.886719 809.554688 L 753.160156 810.101562 L 758.089844 810.101562 L 758.089844 810.375 L 757.007812 810.484375 L 755.589844 810.632812 L 754.878906 810.703125 C 753.660156 810.832031 752.453125 810.976562 751.246094 811.195312 C 751.234375 810.558594 751.234375 809.917969 751.246094 809.28125 Z M 751.519531 809.007812 " fill-opacity="1" fill-rule="nonzero"/><path fill="#c96c66" d="M 747.960938 809.007812 L 748.507812 809.007812 L 748.78125 810.921875 L 743.304688 810.648438 L 743.304688 810.375 L 744.015625 810.335938 L 744.929688 810.273438 L 745.84375 810.214844 L 746.589844 810.101562 L 746.863281 809.554688 L 747.960938 809.554688 Z M 747.960938 809.007812 " fill-opacity="1" fill-rule="nonzero"/><path fill="#9c9a9b" d="M 838.296875 742.757812 L 838.570312 742.757812 C 838.800781 744.46875 838.855469 745.980469 838.570312 747.6875 L 839.160156 747.785156 L 839.921875 747.925781 L 840.683594 748.058594 L 841.308594 748.234375 L 841.582031 748.78125 C 841.085938 748.789062 840.589844 748.792969 840.09375 748.796875 L 839.257812 748.808594 L 838.570312 748.78125 L 838.296875 748.507812 C 838.273438 748.078125 838.265625 747.652344 838.269531 747.222656 L 838.273438 746.441406 L 838.28125 745.617188 L 838.285156 744.789062 C 838.285156 744.113281 838.292969 743.433594 838.296875 742.757812 M 851.164062 745.222656 L 851.710938 745.222656 C 851.71875 745.765625 851.722656 746.304688 851.726562 746.847656 L 851.738281 747.761719 L 851.710938 748.507812 L 851.4375 748.78125 C 850.976562 748.800781 850.511719 748.804688 850.050781 748.796875 L 849.289062 748.789062 L 848.699219 748.78125 L 848.425781 748.234375 L 850.617188 747.960938 Z M 751.246094 848.699219 L 751.519531 848.699219 L 751.773438 849.640625 C 751.964844 850.558594 751.964844 850.558594 752.339844 850.890625 C 753.1875 850.96875 754.039062 851.011719 754.890625 851.058594 L 755.625 851.164062 L 755.898438 851.710938 C 755.175781 851.71875 754.449219 851.722656 753.726562 851.726562 L 753.097656 851.734375 C 752.574219 851.734375 752.046875 851.726562 751.519531 851.710938 L 751.246094 851.4375 C 751.226562 850.976562 751.222656 850.511719 751.226562 850.050781 L 751.234375 849.289062 Z M 751.246094 848.699219 " fill-opacity="1" fill-rule="nonzero"/><path fill="#b67d7a" d="M 689.378906 746.042969 L 689.925781 746.589844 L 689.652344 747.136719 L 690.199219 747.136719 L 690.472656 747.960938 L 691.019531 748.234375 L 691.019531 748.78125 L 688.554688 748.78125 Z M 689.378906 746.042969 " fill-opacity="1" fill-rule="nonzero"/><path fill="#9c9a9b" d="M 849.246094 751.246094 C 850.929688 751.21875 850.929688 751.21875 851.4375 751.246094 L 851.710938 751.519531 C 851.730469 752.117188 851.734375 752.714844 851.726562 753.316406 L 851.71875 754.308594 L 851.710938 755.078125 L 851.164062 755.078125 L 851.164062 752.339844 L 850.617188 752.066406 L 850.617188 751.792969 L 849.246094 751.519531 Z M 648.316406 745.496094 L 648.589844 745.496094 L 649.136719 747.960938 L 651.050781 748.507812 L 651.050781 748.78125 L 648.589844 748.78125 C 648.039062 747.6875 648.039062 747.6875 648.046875 747.101562 Z M 751.246094 832.820312 L 751.519531 832.820312 L 751.792969 835.011719 L 754.804688 835.285156 L 754.53125 835.832031 C 754.136719 835.839844 753.742188 835.847656 753.347656 835.851562 L 752.683594 835.859375 C 752.066406 835.832031 752.066406 835.832031 751.246094 835.558594 Z M 818.585938 746.863281 L 819.132812 746.863281 L 819.132812 747.6875 L 819.683594 747.6875 L 819.683594 748.234375 L 821.597656 748.234375 L 821.871094 748.78125 L 818.3125 748.78125 Z M 838.570312 751.246094 C 839.300781 751.207031 840.027344 751.234375 840.761719 751.246094 L 840.761719 751.519531 L 839.972656 751.773438 C 839.15625 752.03125 839.15625 752.03125 838.570312 752.339844 L 838.570312 756.71875 L 838.296875 756.71875 C 838.289062 755.859375 838.285156 754.996094 838.28125 754.136719 L 838.273438 753.390625 L 838.269531 752.683594 L 838.265625 752.027344 L 838.296875 751.519531 Z M 664.464844 751.246094 C 665.066406 751.226562 665.664062 751.21875 666.261719 751.226562 L 667.253906 751.234375 L 668.023438 751.246094 L 668.023438 751.519531 L 667.496094 751.558594 L 666.808594 751.621094 C 666.585938 751.640625 666.359375 751.660156 666.125 751.679688 L 665.5625 751.792969 L 665.289062 752.339844 L 664.464844 752.339844 L 664.464844 754.53125 L 664.191406 754.53125 C 664.183594 754.035156 664.179688 753.539062 664.175781 753.042969 L 664.164062 752.203125 L 664.191406 751.519531 Z M 835.011719 747.414062 L 835.832031 747.414062 L 835.558594 748.78125 L 832.820312 748.78125 L 832.546875 748.234375 L 835.011719 747.960938 Z M 664.191406 745.222656 L 664.464844 745.222656 L 664.558594 745.742188 L 664.6875 746.417969 L 664.8125 747.09375 C 664.878906 747.289062 664.945312 747.484375 665.011719 747.6875 L 665.835938 748.234375 L 665.835938 748.78125 L 664.191406 748.507812 Z M 664.191406 745.222656 " fill-opacity="1" fill-rule="nonzero"/><path fill="#b67d7a" d="M 751.246094 680.070312 C 752.160156 680.222656 752.894531 680.441406 753.707031 680.890625 L 753.707031 681.4375 L 751.246094 681.4375 Z M 751.246094 680.070312 " fill-opacity="1" fill-rule="nonzero"/><path fill="#9c9a9b" d="M 751.246094 664.191406 L 754.53125 664.191406 L 754.53125 664.464844 L 753.484375 664.515625 C 752.886719 664.570312 752.886719 664.570312 752.339844 664.738281 C 751.796875 665.402344 751.796875 665.402344 751.519531 666.109375 L 751.246094 666.109375 Z M 747.960938 834.464844 L 748.78125 834.464844 L 748.78125 835.558594 C 748.039062 835.929688 747.410156 835.851562 746.589844 835.832031 L 746.316406 835.285156 L 747.960938 835.011719 Z M 747.960938 809.007812 L 748.507812 809.007812 L 748.78125 810.648438 L 746.863281 810.375 L 746.863281 809.554688 L 747.960938 809.554688 Z M 854.449219 747.6875 C 854.898438 747.761719 855.351562 747.84375 855.800781 747.925781 L 856.558594 748.058594 L 857.1875 748.234375 L 857.460938 748.78125 L 854.449219 748.78125 Z M 645.03125 747.414062 L 645.578125 747.414062 L 645.578125 748.78125 L 643.386719 748.78125 L 643.113281 748.234375 L 645.03125 747.960938 Z M 751.519531 838.296875 C 752.117188 838.277344 752.714844 838.273438 753.316406 838.28125 L 754.308594 838.289062 L 755.078125 838.296875 L 755.078125 838.570312 L 752.066406 838.570312 L 752.066406 839.390625 L 751.519531 839.390625 L 751.246094 839.941406 C 751.234375 839.484375 751.234375 839.027344 751.246094 838.570312 Z M 680.34375 747.6875 L 681.164062 747.960938 L 681.164062 748.78125 L 678.976562 748.78125 L 678.699219 748.234375 C 679.472656 747.941406 679.472656 747.941406 680.34375 747.6875 M 751.246094 648.316406 L 754.53125 648.316406 L 754.53125 648.589844 L 753.484375 648.675781 C 752.886719 648.738281 752.886719 648.738281 752.339844 648.863281 C 751.8125 649.25 751.8125 649.25 751.519531 649.683594 L 751.246094 649.683594 Z M 751.246094 648.316406 " fill-opacity="1" fill-rule="nonzero"/><path fill="#b67d7a" d="M 679.796875 751.519531 L 681.164062 751.519531 L 681.4375 753.707031 L 680.890625 753.707031 L 680.652344 753.074219 C 680.355469 752.296875 680.355469 752.296875 679.796875 751.519531 " fill-opacity="1" fill-rule="nonzero"/><path fill="#9c9a9b" d="M 745.222656 664.191406 L 748.507812 664.191406 L 748.507812 665.289062 L 747.960938 665.289062 L 747.960938 664.738281 L 745.222656 664.464844 Z M 661.453125 747.960938 L 661.453125 748.507812 C 660.714844 748.878906 660.082031 748.796875 659.265625 748.78125 L 658.992188 748.234375 C 659.855469 748.042969 660.558594 747.960938 661.453125 747.960938 M 746.863281 689.378906 L 748.507812 689.378906 L 748.507812 690.746094 L 747.6875 690.472656 L 747.6875 689.925781 L 746.863281 689.925781 Z M 747.960938 850.34375 L 748.78125 850.617188 L 748.507812 851.710938 L 747.414062 851.4375 L 747.414062 850.890625 L 747.960938 850.890625 Z M 751.246094 818.585938 L 753.160156 818.585938 C 752.515625 819.277344 752.15625 819.652344 751.246094 819.957031 Z M 809.007812 751.246094 L 810.375 751.519531 L 810.375 752.613281 L 809.28125 752.339844 Z M 809.007812 751.246094 " fill-opacity="1" fill-rule="nonzero"/><path fill="#b67d7a" d="M 689.378906 742.757812 L 689.925781 742.757812 L 689.925781 744.949219 L 689.101562 744.675781 Z M 689.378906 742.757812 " fill-opacity="1" fill-rule="nonzero"/><path fill="#9c9a9b" d="M 648.316406 751.519531 L 649.410156 751.792969 L 649.136719 752.339844 L 648.589844 752.339844 L 648.589844 754.257812 L 648.316406 754.257812 Z M 818.585938 751.246094 L 821.050781 751.246094 L 821.050781 751.519531 L 820.246094 751.757812 L 819.410156 752.066406 L 819.132812 752.613281 L 818.585938 752.339844 Z M 643.386719 751.246094 L 645.304688 751.246094 L 645.578125 752.339844 C 644.761719 752.03125 644.117188 751.730469 643.386719 751.246094 M 747.960938 660.085938 L 748.78125 660.359375 L 748.78125 661.453125 L 747.414062 661.453125 Z M 747.960938 660.085938 " fill-opacity="1" fill-rule="nonzero"/></svg>